<svg width="1652" height="993" xmlns="http://www.w3.org/2000/svg" xmlns:xlink="http://www.w3.org/1999/xlink" overflow="hidden"><defs><clipPath id="clip0"><rect x="1732" y="623" width="1652" height="993"/></clipPath><clipPath id="clip1"><rect x="1732" y="624" width="1650" height="990"/></clipPath><clipPath id="clip2"><rect x="1732" y="624" width="1650" height="990"/></clipPath><clipPath id="clip3"><rect x="1732" y="624" width="1650" height="990"/></clipPath><clipPath id="clip4"><rect x="1732" y="624" width="1650" height="990"/></clipPath><clipPath id="clip5"><rect x="1852" y="794" width="1441" height="717"/></clipPath><clipPath id="clip6"><rect x="1732" y="624" width="1650" height="990"/></clipPath><clipPath id="clip7"><rect x="1732" y="624" width="1650" height="990"/></clipPath><clipPath id="clip8"><rect x="1732" y="624" width="1650" height="990"/></clipPath><clipPath id="clip9"><rect x="1732" y="624" width="1650" height="990"/></clipPath><clipPath id="clip10"><rect x="1732" y="624" width="1650" height="990"/></clipPath><clipPath id="clip11"><rect x="1732" y="624" width="1650" height="990"/></clipPath><clipPath id="clip12"><rect x="1732" y="624" width="1650" height="990"/></clipPath><clipPath id="clip13"><rect x="1732" y="624" width="1650" height="990"/></clipPath><clipPath id="clip14"><rect x="1732" y="624" width="1650" height="990"/></clipPath><clipPath id="clip15"><rect x="1732" y="624" width="1650" height="990"/></clipPath><clipPath id="clip16"><rect x="1732" y="624" width="1650" height="990"/></clipPath><clipPath id="clip17"><rect x="1732" y="624" width="1650" height="990"/></clipPath><clipPath id="clip18"><rect x="1732" y="624" width="1650" height="990"/></clipPath><clipPath id="clip19"><rect x="1732" y="624" width="1650" height="990"/></clipPath><clipPath id="clip20"><rect x="1732" y="624" width="1650" height="990"/></clipPath><clipPath id="clip21"><rect x="1732" y="624" width="1650" height="990"/></clipPath><clipPath id="clip22"><rect x="1732" y="624" width="1650" height="990"/></clipPath></defs><g clip-path="url(#clip0)" transform="translate(-1732 -623)"><rect x="1733" y="624" width="1649" height="990" fill="#FFFFFF"/><g clip-path="url(#clip1)"><path d="M1852.76 1388.98 3290.28 1388.98M1852.76 1270.03 3290.28 1270.03M1852.76 1151.09 3290.28 1151.09M1852.76 1032.14 3290.28 1032.14M1852.76 913.192 3290.28 913.192M1852.76 794.246 3290.28 794.246" stroke="#D9D9D9" stroke-width="3.4375" stroke-linejoin="round" stroke-miterlimit="10" fill="none"/></g><g clip-path="url(#clip2)"><path d="M2032.45 794.246 2032.45 1507.92M2212.14 794.246 2212.14 1507.92M2391.83 794.246 2391.83 1507.92M2571.52 794.246 2571.52 1507.92M2751.21 794.246 2751.21 1507.92M2930.9 794.246 2930.9 1507.92M3110.59 794.246 3110.59 1507.92M3290.28 794.246 3290.28 1507.92" stroke="#D9D9D9" stroke-width="3.4375" stroke-linejoin="round" stroke-miterlimit="10" fill="none"/></g><g clip-path="url(#clip3)"><path d="M0 0 0.000360892 713" stroke="#BFBFBF" stroke-width="3.4375" stroke-linejoin="round" stroke-miterlimit="10" fill="none" fill-rule="evenodd" transform="matrix(1 0 0 -1 1852.5 1507.5)"/></g><g clip-path="url(#clip4)"><path d="M1852.5 1507.5 3290.5 1507.5" stroke="#BFBFBF" stroke-width="3.4375" stroke-linejoin="round" stroke-miterlimit="10" fill="none" fill-rule="evenodd"/></g><g clip-path="url(#clip5)"><path d="M1852.76 900.947 1853.12 898.734 1853.48 899.52 1853.84 903.686 1854.2 902.273 1854.56 899.225 1854.92 900.089 1855.28 903.313 1855.64 901.669 1856 902.158 1856.36 903.424 1856.72 902.73 1857.08 905.229 1857.43 902.432 1857.79 906.842 1858.15 907.348 1858.51 904.673 1858.87 902.977 1859.23 902.651 1859.59 903.494 1859.95 904.234 1860.31 904.079 1860.67 906.1 1861.03 906.054 1861.39 902.544 1861.75 905.557 1862.11 908.098 1862.47 905.251 1862.83 905.906 1863.18 907.962 1863.54 905.072 1863.9 906.408 1864.26 908.523 1864.62 899.838 1864.98 907.25 1865.34 906.553 1865.7 906.021 1866.06 908.99 1866.42 908.134 1866.78 907.712 1867.14 905.916 1867.5 907.174 1867.86 907.401 1868.22 904.847 1868.58 900.336 1868.93 906.758 1869.29 906.962 1869.65 907.757 1870.01 907.482 1870.37 906.058 1870.73 904.402 1871.09 902.938 1871.45 907.971 1871.81 905.8 1872.17 906.183 1872.53 906.287 1872.89 906.431 1873.25 903.438 1873.61 902.545 1873.97 899.917 1874.33 904.5 1874.68 904.413 1875.04 904.545 1875.4 902.525 1875.76 907.38 1876.12 904.671 1876.48 906.225 1876.84 903.868 1877.2 904.542 1877.56 903.774 1877.92 906.402 1878.28 907.475 1878.64 906.128 1879 906.51 1879.36 904.628 1879.72 905.53 1880.08 903.911 1880.43 906.557 1880.79 908.032 1881.15 906.157 1881.51 902.758 1881.87 901.884 1882.23 901.907 1882.59 902.956 1882.95 906.148 1883.31 907.443 1883.67 898.782 1884.03 905.137 1884.39 904.571 1884.75 903.435 1885.11 905.498 1885.47 907.164 1885.83 907.457 1886.18 902.541 1886.54 905.269 1886.9 908.77 1887.26 904.387 1887.62 904.224 1887.98 901.184 1888.34 901.321 1888.7 901.368 1889.06 903.896 1889.42 907.026 1889.78 907.275 1890.14 903.293 1890.5 906.841 1890.86 908.763 1891.22 909.704 1891.58 911.026 1891.94 909.83 1892.29 907.697 1892.65 906.638 1893.01 907.607 1893.37 897.164 1893.73 904.708 1894.09 909.119 1894.45 906.693 1894.81 906.727 1895.17 907.026 1895.53 907.832 1895.89 906.559 1896.25 907.631 1896.61 907.12 1896.97 903.559 1897.33 901.609 1897.69 907.037 1898.04 905.854 1898.4 906.809 1898.76 909.431 1899.12 906.718 1899.48 906.485 1899.84 907.453 1900.2 908.038 1900.56 905.202 1900.92 904.254 1901.28 906.944 1901.64 904.849 1902 903.774 1902.36 902.438 1902.72 901.268 1903.08 903.429 1903.44 904.589 1903.79 905.233 1904.15 905.11 1904.51 905.622 1904.87 906.712 1905.23 905.507 1905.59 906.07 1905.95 905.706 1906.31 900.898 1906.67 908.115 1907.03 907.83 1907.39 906.811 1907.75 907.735 1908.11 904.046 1908.47 902.662 1908.83 902.311 1909.19 906.83 1909.54 906.172 1909.9 908.408 1910.26 904.857 1910.62 897.988 1910.98 899.054 1911.34 905.502 1911.7 904.428 1912.06 903.139 1912.42 902.072 1912.78 903.865 1913.14 904.229 1913.5 904.661 1913.86 902.292 1914.22 904.299 1914.58 906.064 1914.94 902.592 1915.29 901.816 1915.65 903.599 1916.01 904.228 1916.37 903.652 1916.73 904.695 1917.09 906.012 1917.45 903.226 1917.81 905.1 1918.17 905.533 1918.53 907.912 1918.89 904.26 1919.25 906.692 1919.61 909.687 1919.97 909.199 1920.33 908.068 1920.69 904.78 1921.04 905.085 1921.4 907.542 1921.76 908.029 1922.12 898.416 1922.48 905.253 1922.84 907.342 1923.2 906.259 1923.56 906.684 1923.92 907.805 1924.28 907.499 1924.64 907.518 1925 908.427 1925.36 906.871 1925.72 903.342 1926.08 905.156 1926.44 905.424 1926.8 906.536 1927.15 904.585 1927.51 908.969 1927.87 907.347 1928.23 906.879 1928.59 907.946 1928.95 907.693 1929.31 904.701 1929.67 906.345 1930.03 907.79 1930.39 907.556 1930.75 907.459 1931.11 906.678 1931.47 905.051 1931.83 905.821 1932.19 906.076 1932.55 905.51 1932.9 904.534 1933.26 907.986 1933.62 905.346 1933.98 906.048 1934.34 906.308 1934.7 904.143 1935.06 905.605 1935.42 906.379 1935.78 906.794 1936.14 907.909 1936.5 907.589 1936.86 902.189 1937.22 903.758 1937.58 900.712 1937.94 906.278 1938.3 906.715 1938.65 906.754 1939.01 906.542 1939.37 901.825 1939.73 900.95 1940.09 906.679 1940.45 904.402 1940.81 906.42 1941.17 901.714 1941.53 903.179 1941.89 902.341 1942.25 905.686 1942.61 904.107 1942.97 905.292 1943.33 905.457 1943.69 905.372 1944.05 894.021 1944.4 888.968 1944.76 898.798 1945.12 904.678 1945.48 906.949 1945.84 908.415 1946.2 908.907 1946.56 907.087 1946.92 903.234 1947.28 907.27 1947.64 903.21 1948 905.151 1948.36 906.472 1948.72 906.833 1949.08 906.502 1949.44 906.95 1949.8 906.398 1950.15 908.55 1950.51 908.347 1950.87 901.83 1951.23 905.3 1951.59 908.42 1951.95 909.239 1952.31 907.582 1952.67 906.927 1953.03 906.913 1953.39 907.48 1953.75 907.599 1954.11 907.101 1954.47 904.823 1954.83 903.67 1955.19 904.535 1955.55 904.813 1955.9 907.623 1956.26 906.13 1956.62 906.694 1956.98 907.122 1957.34 905.112 1957.7 908.895 1958.06 904.625 1958.42 907.291 1958.78 907.547 1959.14 908.053 1959.5 905.927 1959.86 907.323 1960.22 906.812 1960.58 907.021 1960.94 906.871 1961.3 908.407 1961.65 906.673 1962.01 907.784 1962.37 902.353 1962.73 904.192 1963.09 905.576 1963.45 905.411 1963.81 907.064 1964.17 906.178 1964.53 906.406 1964.89 908.084 1965.25 905.826 1965.61 906.511 1965.97 905.82 1966.33 901.433 1966.69 906.626 1967.05 906.328 1967.4 902.972 1967.76 904.661 1968.12 902.911 1968.48 901.166 1968.84 905.98 1969.2 906.241 1969.56 903.474 1969.92 903.016 1970.28 906.279 1970.64 904.415 1971 903.963 1971.36 907.144 1971.72 904.768 1972.08 904.827 1972.44 905.515 1972.8 899.407 1973.15 884.47 1973.51 902.261 1973.87 902.318 1974.23 906.74 1974.59 906.364 1974.95 906.168 1975.31 910.504 1975.67 903.77 1976.03 901.878 1976.39 902.329 1976.75 903.863 1977.11 906.535 1977.47 905.18 1977.83 906.177 1978.19 906.222 1978.55 905.898 1978.91 905.386 1979.26 907.88 1979.62 897.806 1979.98 907.218 1980.34 908.331 1980.7 907.235 1981.06 906.743 1981.42 906.604 1981.78 906.92 1982.14 904.689 1982.5 909.587 1982.86 904.789 1983.22 904.868 1983.58 900.271 1983.94 905.239 1984.3 906.022 1984.66 903.549 1985.01 901.337 1985.37 906.524 1985.73 905.699 1986.09 906.545 1986.45 907.539 1986.81 903.825 1987.17 905.197 1987.53 907.045 1987.89 904.564 1988.25 905.903 1988.61 907.347 1988.97 908.897 1989.33 906.22 1989.69 907.792 1990.05 907.181 1990.41 907.088 1990.76 907.353 1991.12 900.761 1991.48 906.719 1991.84 907.014 1992.2 905.67 1992.56 905.319 1992.92 909.052 1993.28 910.012 1993.64 908.233 1994 906.77 1994.36 906.85 1994.72 904.268 1995.08 905.929 1995.44 908.093 1995.8 907.309 1996.16 907.823 1996.51 905.231 1996.87 903.594 1997.23 899.034 1997.59 903.688 1997.95 905.194 1998.31 905.132 1998.67 900.602 1999.03 905.422 1999.39 906.949 1999.75 903.678 2000.11 905.018 2000.47 905.468 2000.83 907.448 2001.19 904.055 2001.55 898.645 2001.91 884.671 2002.26 904.249 2002.62 902.275 2002.98 907.371 2003.34 906.031 2003.7 905.728 2004.06 908.037 2004.42 902.956 2004.78 904.248 2005.14 903.474 2005.5 903.912 2005.86 907.812 2006.22 907.795 2006.58 906.789 2006.94 908.266 2007.3 904.28 2007.66 903.878 2008.02 906.657 2008.37 891.463 2008.73 905.734 2009.09 907.473 2009.45 909.128 2009.81 906.447 2010.17 905.268 2010.53 906.603 2010.89 904.397 2011.25 906.951 2011.61 907.587 2011.97 902.796 2012.33 902.174 2012.69 903.576 2013.05 905.236 2013.41 903.414 2013.77 904.762 2014.12 903.404 2014.48 906.649 2014.84 907.1 2015.2 906.949 2015.56 904.401 2015.92 905.266 2016.28 902.614 2016.64 905.545 2017 905.438 2017.36 906.465 2017.72 907.021 2018.08 906.755 2018.44 906.097 2018.8 906.646 2019.16 906.22 2019.52 907.19 2019.87 900.655 2020.23 906.886 2020.59 906.682 2020.95 905.896 2021.31 906.168 2021.67 906.534 2022.03 907.063 2022.39 908.933 2022.75 907.036 2023.11 908.261 2023.47 906.167 2023.83 907.38 2024.19 907.59 2024.55 908.753 2024.91 909.581 2025.27 906.166 2025.62 906.643 2025.98 902.387 2026.34 906.821 2026.7 908.724 2027.06 902.137 2027.42 901.191 2027.78 906.059 2028.14 907.312 2028.5 902.035 2028.86 894.284 2029.22 899.978 2029.58 907.01 2029.94 906.527 2030.3 901.531 2030.66 893.921 2031.02 902.961 2031.37 900.885 2031.73 905.866 2032.09 903.863 2032.45 905.234 2032.81 908.431 2033.17 904.321 2033.53 905.735 2033.89 905.579 2034.25 902.026 2034.61 907.125 2034.97 906.655 2035.33 907.801 2035.69 906.105 2036.05 904.535 2036.41 904.396 2036.77 905.462 2037.12 898.6 2037.48 904.464 2037.84 905.583 2038.2 905.191 2038.56 905.734 2038.92 901.414 2039.28 903.713 2039.64 903.432 2040 903.726 2040.36 905.463 2040.72 899.221 2041.08 900.908 2041.44 900.788 2041.8 904.456 2042.16 903.68 2042.52 905.358 2042.87 901.573 2043.23 906.114 2043.59 908.163 2043.95 907.274 2044.31 901.917 2044.67 899.432 2045.03 904.647 2045.39 907.662 2045.75 902.125 2046.11 899.806 2046.47 898.515 2046.83 903.696 2047.19 906.094 2047.55 907.984 2047.91 906.207 2048.27 907.14 2048.62 901.424 2048.98 904.829 2049.34 904.012 2049.7 905.406 2050.06 907.369 2050.42 905.617 2050.78 907.963 2051.14 908.72 2051.5 906.274 2051.86 905.152 2052.22 904.258 2052.58 906.475 2052.94 908.071 2053.3 908.942 2053.66 908.563 2054.02 900.472 2054.37 906.453 2054.73 902.635 2055.09 903.996 2055.45 905.981 2055.81 907.105 2056.17 890.681 2056.53 906.165 2056.89 910.433 2057.25 900.041 2057.61 899.249 2057.97 904.508 2058.33 906.383 2058.69 904.692 2059.05 901.194 2059.41 891.435 2059.77 901.658 2060.12 898.12 2060.48 906.696 2060.84 904.525 2061.2 905.149 2061.56 908.37 2061.92 905.669 2062.28 904.653 2062.64 905.334 2063 905.52 2063.36 906.451 2063.72 906.269 2064.08 907.368 2064.44 906.357 2064.8 904.898 2065.16 903.425 2065.52 905.853 2065.88 900.212 2066.23 906.179 2066.59 908.089 2066.95 905.661 2067.31 903.926 2067.67 899.681 2068.03 903.832 2068.39 900.924 2068.75 905.851 2069.11 905.899 2069.47 903.358 2069.83 903.67 2070.19 901.336 2070.55 905.493 2070.91 902.691 2071.27 903.192 2071.63 903.348 2071.98 905.882 2072.34 901.426 2072.7 906.903 2073.06 895.767 2073.42 902.419 2073.78 903.124 2074.14 905.413 2074.5 903.407 2074.86 900.114 2075.22 899.758 2075.58 898.246 2075.94 903.732 2076.3 907.936 2076.66 907.07 2077.02 906.462 2077.38 896.29 2077.73 904.105 2078.09 904.697 2078.45 902.973 2078.81 909.02 2079.17 905.604 2079.53 907.255 2079.89 905.798 2080.25 906 2080.61 903.547 2080.97 903.77 2081.33 906.506 2081.69 908.596 2082.05 908.393 2082.41 909.088 2082.77 893.192 2083.13 896.932 2083.48 898.214 2083.84 904.002 2084.2 904.358 2084.56 906.03 2084.92 897.817 2085.28 902.775 2085.64 905.94 2086 903.04 2086.36 905.386 2086.72 907.931 2087.08 907.075 2087.44 902.284 2087.8 899.902 2088.16 890.574 2088.52 902.842 2088.88 896.295 2089.23 904.864 2089.59 907.229 2089.95 904.437 2090.31 908.803 2090.67 903.01 2091.03 904.073 2091.39 905.712 2091.75 903.174 2092.11 906.696 2092.47 907.594 2092.83 907.187 2093.19 907.042 2093.55 906.568 2093.91 902.759 2094.27 906.44 2094.63 903.378 2094.99 905.721 2095.34 904.988 2095.7 906.918 2096.06 905.203 2096.42 902.42 2096.78 901.226 2097.14 904.204 2097.5 904.158 2097.86 905.175 2098.22 904.375 2098.58 900.538 2098.94 902.984 2099.3 902.112 2099.66 900.519 2100.02 896.706 2100.38 901.452 2100.74 905.37 2101.09 901.4 2101.45 906.523 2101.81 893.141 2102.17 902.753 2102.53 905.277 2102.89 903.872 2103.25 906.886 2103.61 903.947 2103.97 904.36 2104.33 906.178 2104.69 904.646 2105.05 904.597 2105.41 904.842 2105.77 905.371 2106.13 895.125 2106.49 904.895 2106.84 908.21 2107.2 908.494 2107.56 908.071 2107.92 906.991 2108.28 906.745 2108.64 903.056 2109 904.963 2109.36 906.326 2109.72 905.892 2110.08 909.128 2110.44 907.515 2110.8 907.589 2111.16 907.713 2111.52 902.745 2111.88 907.382 2112.24 905.89 2112.59 907.321 2112.95 905.018 2113.31 907.822 2113.67 907.464 2114.03 907.205 2114.39 906.425 2114.75 905.804 2115.11 903.33 2115.47 902.541 2115.83 902.037 2116.19 903.542 2116.55 902.819 2116.91 894.052 2117.27 903.419 2117.63 899.011 2117.99 906.76 2118.34 906.216 2118.7 905.96 2119.06 907.285 2119.42 903.394 2119.78 906.285 2120.14 905.658 2120.5 902.79 2120.86 906.306 2121.22 907.736 2121.58 906.669 2121.94 905.501 2122.3 906.456 2122.66 902.316 2123.02 905.923 2123.38 903.524 2123.74 907.902 2124.09 908.634 2124.45 907.247 2124.81 905.834 2125.17 906.31 2125.53 906.469 2125.89 903.793 2126.25 903.9 2126.61 906.069 2126.97 903.527 2127.33 899.892 2127.69 898.822 2128.05 895.62 2128.41 888.331 2128.77 892.816 2129.13 898.679 2129.49 902.808 2129.84 902.26 2130.2 907.681 2130.56 897.088 2130.92 907.087 2131.28 905.891 2131.64 908.195 2132 907.481 2132.36 907.182 2132.72 905.906 2133.08 908.814 2133.44 905.572 2133.8 904.573 2134.16 903.495 2134.52 903.126 2134.88 889.985 2135.24 907.098 2135.59 910.683 2135.95 908.693 2136.31 905.75 2136.67 904.471 2137.03 901.295 2137.39 905.072 2137.75 907.585 2138.11 906.938 2138.47 909.581 2138.83 908.825 2139.19 908.104 2139.55 908.921 2139.91 908.001 2140.27 901.589 2140.63 902.193 2140.99 904.101 2141.34 905.732 2141.7 907.449 2142.06 908.392 2142.42 910.115 2142.78 909.456 2143.14 905.28 2143.5 904.593 2143.86 893.374 2144.22 903.312 2144.58 908.493 2144.94 903.243 2145.3 904.817 2145.66 897.51 2146.02 901.948 2146.38 903.364 2146.74 907.249 2147.09 906.661 2147.45 905.808 2147.81 904.658 2148.17 905.224 2148.53 904.69 2148.89 908.034 2149.25 901.323 2149.61 907.036 2149.97 906.576 2150.33 909.094 2150.69 907.664 2151.05 906.428 2151.41 903.723 2151.77 906.698 2152.13 906.164 2152.49 905.827 2152.84 906.474 2153.2 906.676 2153.56 907.884 2153.92 908.223 2154.28 906.79 2154.64 903.326 2155 906.607 2155.36 904.417 2155.72 905.999 2156.08 906.623 2156.44 906.606 2156.8 904.559 2157.16 907.469 2157.52 907.434 2157.88 903.724 2158.24 905.782 2158.6 900.826 2158.95 906.37 2159.31 892.735 2159.67 907.271 2160.03 906.811 2160.39 906.278 2160.75 907.953 2161.11 908.3 2161.47 907.783 2161.83 907.242 2162.19 906.516 2162.55 902.46 2162.91 904.453 2163.27 904.519 2163.63 895.37 2163.99 908.348 2164.35 908.924 2164.7 909.904 2165.06 907.705 2165.42 907.708 2165.78 904.744 2166.14 907.434 2166.5 908.146 2166.86 906.514 2167.22 906.487 2167.58 907.078 2167.94 907.068 2168.3 907.035 2168.66 907.757 2169.02 906.173 2169.38 902.589 2169.74 905.558 2170.1 903.248 2170.45 907.456 2170.81 903.636 2171.17 903.927 2171.53 906.814 2171.89 900.556 2172.25 903.384 2172.61 903.171 2172.97 903.373 2173.33 905.89 2173.69 905.462 2174.05 907.189 2174.41 896.381 2174.77 901.781 2175.13 901.538 2175.49 906.676 2175.85 905.313 2176.2 905.062 2176.56 905.553 2176.92 905.04 2177.28 904.167 2177.64 906.524 2178 902.031 2178.36 905.538 2178.72 907.966 2179.08 907.387 2179.44 906.164 2179.8 904.8 2180.16 902.112 2180.52 906.657 2180.88 905.035 2181.24 907.298 2181.6 908.131 2181.96 907.569 2182.31 908.402 2182.67 907.57 2183.03 906.788 2183.39 902.886 2183.75 903.681 2184.11 904.977 2184.47 904.983 2184.83 907.081 2185.19 907.741 2185.55 906.909 2185.91 908.065 2186.27 906.015 2186.63 905.346 2186.99 904.402 2187.35 900.359 2187.71 908.893 2188.06 898.868 2188.42 905.971 2188.78 905.971 2189.14 906.234 2189.5 907.101 2189.86 907.505 2190.22 908.405 2190.58 908.382 2190.94 903.814 2191.3 901.932 2191.66 903.185 2192.02 903.597 2192.38 900.622 2192.74 906.971 2193.1 906.698 2193.46 909.228 2193.81 910.501 2194.17 908.207 2194.53 909.034 2194.89 907.559 2195.25 909.486 2195.61 906.938 2195.97 906.524 2196.33 908.315 2196.69 907.87 2197.05 907.647 2197.41 907.609 2197.77 905.719 2198.13 902.374 2198.49 905.56 2198.85 905.763 2199.21 904.877 2199.56 905.326 2199.92 905.43 2200.28 905.711 2200.64 903.646 2201 905.665 2201.36 903.776 2201.72 904.352 2202.08 907.565 2202.44 908.072 2202.8 905.45 2203.16 900.866 2203.52 904.212 2203.88 901.013 2204.24 906.817 2204.6 907.432 2204.96 905.854 2205.31 907.133 2205.67 906.888 2206.03 906.163 2206.39 907.951 2206.75 905.15 2207.11 906.206 2207.47 905.076 2207.83 906.938 2208.19 906.711 2208.55 906.793 2208.91 904.166 2209.27 905.575 2209.63 904.38 2209.99 907.396 2210.35 905.793 2210.71 907.606 2211.06 906.294 2211.42 907.518 2211.78 907.981 2212.14 906.319 2212.5 905.483 2212.86 905.934 2213.22 906.445 2213.58 906.903 2213.94 907.121 2214.3 908.274 2214.66 907.477 2215.02 906.76 2215.38 907.741 2215.74 905.988 2216.1 900.305 2216.46 906.951 2216.81 896.607 2217.17 908.974 2217.53 907.915 2217.89 907.661 2218.25 905.109 2218.61 907.359 2218.97 908.495 2219.33 906.41 2219.69 906.948 2220.05 903.227 2220.41 906.012 2220.77 902.08 2221.13 895.715 2221.49 898.627 2221.85 899.615 2222.21 902.733 2222.56 905.714 2222.92 902.909 2223.28 904.182 2223.64 900.713 2224 903.537 2224.36 902.83 2224.72 904.335 2225.08 906.325 2225.44 906.111 2225.8 906.221 2226.16 904.443 2226.52 906.135 2226.88 907.37 2227.24 904.895 2227.6 905.234 2227.96 902.741 2228.31 905.179 2228.67 906.754 2229.03 905.599 2229.39 908.2 2229.75 908.637 2230.11 908.996 2230.47 906.894 2230.83 907.261 2231.19 907.531 2231.55 905.102 2231.91 901.872 2232.27 899.602 2232.63 901.878 2232.99 905.971 2233.35 906.763 2233.71 906.331 2234.06 906.386 2234.42 905.834 2234.78 906.072 2235.14 908.03 2235.5 904.009 2235.86 906.384 2236.22 908.366 2236.58 906.958 2236.94 907.003 2237.3 907.156 2237.66 902.366 2238.02 905.45 2238.38 905.78 2238.74 907.176 2239.1 906.603 2239.46 908.12 2239.82 906.124 2240.17 907.899 2240.53 907.722 2240.89 906.303 2241.25 905.944 2241.61 905.143 2241.97 905.863 2242.33 905.624 2242.69 907.828 2243.05 906.059 2243.41 907.899 2243.77 907.602 2244.13 907.346 2244.49 905.736 2244.85 902.299 2245.21 907.722 2245.57 891.084 2245.92 906.838 2246.28 904.084 2246.64 906.836 2247 907.195 2247.36 906.563 2247.72 907.782 2248.08 906.288 2248.44 905.416 2248.8 900.153 2249.16 904.58 2249.52 895.196 2249.88 904.665 2250.24 905.909 2250.6 904.407 2250.96 905.336 2251.32 904.716 2251.67 903.427 2252.03 901.058 2252.39 898.127 2252.75 897.492 2253.11 896.144 2253.47 899.45 2253.83 898.466 2254.19 900.157 2254.55 898.129 2254.91 899.535 2255.27 904.518 2255.63 906.602 2255.99 903.645 2256.35 905.552 2256.71 903.953 2257.07 904.634 2257.42 907.359 2257.78 904.923 2258.14 905.442 2258.5 906.192 2258.86 907.019 2259.22 909.119 2259.58 905.276 2259.94 905.039 2260.3 906.614 2260.66 903.267 2261.02 900.658 2261.38 903.444 2261.74 905.483 2262.1 907.571 2262.46 908.348 2262.82 908.432 2263.17 906.026 2263.53 905.296 2263.89 905.638 2264.25 904.179 2264.61 905.617 2264.97 907.93 2265.33 905.964 2265.69 907.375 2266.05 907.029 2266.41 903.839 2266.77 907.554 2267.13 906.611 2267.49 906.436 2267.85 907.141 2268.21 908.334 2268.57 908.836 2268.93 908.746 2269.28 906.777 2269.64 907.105 2270 906.034 2270.36 906.688 2270.72 905.544 2271.08 908.757 2271.44 905.565 2271.8 908.204 2272.16 905.76 2272.52 907.483 2272.88 906.531 2273.24 903.243 2273.6 900.962 2273.96 903.488 2274.32 898.842 2274.68 908.357 2275.03 905.419 2275.39 907.63 2275.75 905.646 2276.11 906.389 2276.47 908.648 2276.83 906.929 2277.19 907.407 2277.55 901.436 2277.91 904.879 2278.27 891.926 2278.63 904.963 2278.99 906.303 2279.35 907.678 2279.71 907.105 2280.07 908.015 2280.43 908.621 2280.78 906.598 2281.14 907.276 2281.5 904.944 2281.86 906.473 2282.22 905.818 2282.58 905.186 2282.94 905.701 2283.3 900.515 2283.66 899.041 2284.02 904.88 2284.38 905.91 2284.74 904.985 2285.1 907.526 2285.46 904.703 2285.82 906.727 2286.18 906.365 2286.53 906.522 2286.89 905.136 2287.25 905.603 2287.61 907.766 2287.97 908.442 2288.33 907.104 2288.69 908.7 2289.05 906.714 2289.41 905.166 2289.77 900.373 2290.13 902.583 2290.49 905.08 2290.85 908.171 2291.21 908.2 2291.57 904.061 2291.93 905.226 2292.28 904.835 2292.64 905.595 2293 901.759 2293.36 907.426 2293.72 904.559 2294.08 906.661 2294.44 906.38 2294.8 905.392 2295.16 905.988 2295.52 906.766 2295.88 904.639 2296.24 907.835 2296.6 905.057 2296.96 906.439 2297.32 909.063 2297.68 906.526 2298.03 908.127 2298.39 905.786 2298.75 905.961 2299.11 905.443 2299.47 906.458 2299.83 909.59 2300.19 907.85 2300.55 907.301 2300.91 907.146 2301.27 906.466 2301.63 905.539 2301.99 902.876 2302.35 904.026 2302.71 906.673 2303.07 903.503 2303.43 906.477 2303.78 906.479 2304.14 906.576 2304.5 906.298 2304.86 907.444 2305.22 906.353 2305.58 907.131 2305.94 906.276 2306.3 902.888 2306.66 905.64 2307.02 876.105 2307.38 905.659 2307.74 907.03 2308.1 906.477 2308.46 905.668 2308.82 907.911 2309.18 908.47 2309.53 905.221 2309.89 907.082 2310.25 908.678 2310.61 907.926 2310.97 906.207 2311.33 906.577 2311.69 907.813 2312.05 908.276 2312.41 906.408 2312.77 903.548 2313.13 906.43 2313.49 904.409 2313.85 904.874 2314.21 907.591 2314.57 906.318 2314.93 906.203 2315.28 907.359 2315.64 907.422 2316 907.099 2316.36 906.186 2316.72 907.703 2317.08 907.833 2317.44 906.547 2317.8 906.575 2318.16 903.237 2318.52 898.618 2318.88 902.112 2319.24 904.76 2319.6 905.438 2319.96 905.501 2320.32 909.098 2320.68 905.833 2321.03 903.812 2321.39 905.891 2321.75 903.3 2322.11 906.635 2322.47 905.658 2322.83 904.94 2323.19 906.115 2323.55 905.515 2323.91 906.785 2324.27 905.067 2324.63 902.785 2324.99 904.885 2325.35 908.313 2325.71 905.117 2326.07 906.187 2326.43 904.341 2326.79 906.592 2327.14 906.656 2327.5 906.914 2327.86 906.042 2328.22 906.982 2328.58 906.05 2328.94 906.926 2329.3 907.344 2329.66 906.45 2330.02 906.777 2330.38 906.584 2330.74 904.018 2331.1 904.712 2331.46 906.631 2331.82 904.386 2332.18 905.871 2332.54 906.091 2332.89 906.474 2333.25 907.05 2333.61 904.406 2333.97 905.212 2334.33 907.075 2334.69 902.65 2335.05 903.948 2335.41 906.426 2335.77 887.514 2336.13 907.432 2336.49 906.709 2336.85 907.72 2337.21 907.971 2337.57 906.568 2337.93 908.77 2338.29 907.843 2338.64 906.554 2339 904.817 2339.36 907.598 2339.72 906.929 2340.08 905.43 2340.44 907.11 2340.8 908.374 2341.16 907.368 2341.52 907.781 2341.88 907.296 2342.24 907.258 2342.6 905.989 2342.96 905.075 2343.32 906.667 2343.68 905.798 2344.04 904.099 2344.39 907.867 2344.75 907.395 2345.11 907.307 2345.47 906.829 2345.83 903.544 2346.19 904.789 2346.55 903.754 2346.91 905.3 2347.27 901.049 2347.63 903.172 2347.99 906.578 2348.35 904.929 2348.71 906.059 2349.07 905.257 2349.43 905.529 2349.79 903.934 2350.15 905.061 2350.5 903.476 2350.86 905.464 2351.22 906.416 2351.58 906.58 2351.94 905.882 2352.3 904.174 2352.66 906.781 2353.02 906.054 2353.38 906.883 2353.74 905.397 2354.1 904.423 2354.46 903.572 2354.82 904.179 2355.18 905.356 2355.54 903.911 2355.9 906.51 2356.25 905.441 2356.61 905.039 2356.97 905.307 2357.33 906.92 2357.69 906.068 2358.05 907.335 2358.41 906.113 2358.77 908.368 2359.13 906.23 2359.49 902.063 2359.85 905.094 2360.21 905.701 2360.57 903.279 2360.93 907.425 2361.29 909.012 2361.65 906.404 2362 907.052 2362.36 907.884 2362.72 905.554 2363.08 906.188 2363.44 902.157 2363.8 902.634 2364.16 904.287 2364.52 898.879 2364.88 907.339 2365.24 907.244 2365.6 907.684 2365.96 907.436 2366.32 905.699 2366.68 905.595 2367.04 902.545 2367.4 903.97 2367.75 907.423 2368.11 906.296 2368.47 909.289 2368.83 909.541 2369.19 908.793 2369.55 906.401 2369.91 906.332 2370.27 906.92 2370.63 905.017 2370.99 906.453 2371.35 905.043 2371.71 905.237 2372.07 907.806 2372.43 906.017 2372.79 907.976 2373.15 904.881 2373.5 907.373 2373.86 905.11 2374.22 901.969 2374.58 903.414 2374.94 903.873 2375.3 904.134 2375.66 901.718 2376.02 902.451 2376.38 903.572 2376.74 907.205 2377.1 907.662 2377.46 900.396 2377.82 903.531 2378.18 903.48 2378.54 903.974 2378.9 905.007 2379.25 904.839 2379.61 906.287 2379.97 903.034 2380.33 905.064 2380.69 905.661 2381.05 904.777 2381.41 905.807 2381.77 905.437 2382.13 905.364 2382.49 902.763 2382.85 902.329 2383.21 901.532 2383.57 901.346 2383.93 899.512 2384.29 903.115 2384.65 905.672 2385 905.77 2385.36 903.979 2385.72 905.837 2386.08 905.427 2386.44 904.593 2386.8 902.645 2387.16 905.413 2387.52 905.004 2387.88 905.635 2388.24 904.274 2388.6 904.221 2388.96 904.024 2389.32 904.228 2389.68 906.327 2390.04 906.958 2390.4 906.942 2390.75 906.47 2391.11 907.694 2391.47 906.818 2391.83 906.518 2392.19 904.321 2392.55 901.183 2392.91 906.353 2393.27 902.799 2393.63 904.419 2393.99 909.228 2394.35 906.183 2394.71 907.683 2395.07 904.554 2395.43 905.558 2395.79 903.128 2396.15 906.516 2396.5 908.219 2396.86 905.705 2397.22 906.675 2397.58 908.63 2397.94 910.342 2398.3 908.628 2398.66 908.73 2399.02 905.686 2399.38 904.239 2399.74 905.923 2400.1 906.238 2400.46 905.702 2400.82 906.27 2401.18 905.186 2401.54 905.413 2401.9 906.234 2402.25 903.184 2402.61 901.117 2402.97 901.578 2403.33 904.344 2403.69 903.004 2404.05 903.108 2404.41 906.24 2404.77 901.851 2405.13 900.842 2405.49 906.526 2405.85 905.033 2406.21 902.715 2406.57 902.33 2406.93 903.872 2407.29 904.981 2407.65 903.066 2408 904.74 2408.36 906.721 2408.72 904.956 2409.08 904.778 2409.44 903.123 2409.8 905.801 2410.16 902.244 2410.52 906.018 2410.88 902.587 2411.24 904.496 2411.6 902.773 2411.96 904.421 2412.32 903.151 2412.68 898.639 2413.04 903.263 2413.4 907.944 2413.76 905.815 2414.11 907.249 2414.47 906.308 2414.83 905.009 2415.19 906.708 2415.55 908.16 2415.91 908.976 2416.27 907.606 2416.63 906.651 2416.99 905.047 2417.35 903.866 2417.71 905.365 2418.07 902.559 2418.43 904.826 2418.79 906.836 2419.15 907.811 2419.51 905.222 2419.86 906.963 2420.22 905.689 2420.58 905.09 2420.94 904.733 2421.3 903.315 2421.66 905.323 2422.02 901.055 2422.38 906.085 2422.74 906.521 2423.1 907.075 2423.46 906.94 2423.82 906.004 2424.18 907.481 2424.54 906.279 2424.9 905.81 2425.26 905.944 2425.61 908.539 2425.97 907.237 2426.33 908.396 2426.69 907.754 2427.05 908.778 2427.41 909.427 2427.77 906.885 2428.13 905.724 2428.49 906.906 2428.85 906.237 2429.21 907.811 2429.57 906.464 2429.93 905.238 2430.29 905.805 2430.65 905.61 2431.01 906.038 2431.36 905.978 2431.72 905.584 2432.08 902.79 2432.44 898.635 2432.8 902.756 2433.16 900.954 2433.52 901.523 2433.88 903.434 2434.24 899.79 2434.6 900.994 2434.96 906.161 2435.32 902.334 2435.68 900.605 2436.04 903.223 2436.4 907.765 2436.76 906.673 2437.11 905.334 2437.47 904.934 2437.83 900.058 2438.19 903.964 2438.55 901.797 2438.91 902.82 2439.27 903.336 2439.63 903.905 2439.99 905.233 2440.35 904.821 2440.71 907.244 2441.07 902.049 2441.43 904.512 2441.79 903.293 2442.15 906.963 2442.51 904.842 2442.86 901.118 2443.22 907.791 2443.58 905.498 2443.94 908.555 2444.3 908.94 2444.66 908.289 2445.02 900.786 2445.38 904.572 2445.74 905.323 2446.1 905.203 2446.46 905.743 2446.82 904.187 2447.18 908.369 2447.54 907.706 2447.9 908.75 2448.26 908.172 2448.62 906.771 2448.97 906.303 2449.33 906.539 2449.69 903.869 2450.05 901.811 2450.41 904.575 2450.77 902.418 2451.13 906.172 2451.49 907.796 2451.85 907.283 2452.21 908.815 2452.57 909.138 2452.93 908.522 2453.29 906.543 2453.65 906.231 2454.01 906.821 2454.37 908.17 2454.72 909.43 2455.08 908.542 2455.44 909.266 2455.8 910.396 2456.16 908.689 2456.52 907.008 2456.88 904.928 2457.24 907.982 2457.6 906.75 2457.96 907.58 2458.32 903.911 2458.68 904.915 2459.04 906.764 2459.4 905.351 2459.76 906.451 2460.11 905.019 2460.47 905.622 2460.83 899.911 2461.19 906.331 2461.55 907.27 2461.91 905.553 2462.27 904.276 2462.63 908.555 2462.99 903.311 2463.35 901.058 2463.71 905.34 2464.07 905.885 2464.43 901.571 2464.79 903.501 2465.15 902.138 2465.51 905.348 2465.87 903.601 2466.22 906.869 2466.58 903.11 2466.94 900.829 2467.3 903.992 2467.66 901.567 2468.02 904.697 2468.38 905.411 2468.74 908.054 2469.1 905.09 2469.46 899.147 2469.82 905.741 2470.18 905.186 2470.54 906.359 2470.9 905.882 2471.26 905.563 2471.62 904.082 2471.97 906.304 2472.33 902.642 2472.69 905.122 2473.05 906.565 2473.41 907.237 2473.77 902.06 2474.13 907.534 2474.49 905.478 2474.85 905.958 2475.21 906.683 2475.57 907.604 2475.93 908.434 2476.29 908.024 2476.65 907.783 2477.01 907.489 2477.37 908.665 2477.72 905.306 2478.08 907.378 2478.44 904.366 2478.8 904.561 2479.16 903.079 2479.52 902.844 2479.88 907.853 2480.24 908.056 2480.6 905.991 2480.96 905.93 2481.32 906.271 2481.68 906.516 2482.04 907.469 2482.4 906.361 2482.76 905.276 2483.12 906.717 2483.47 907.603 2483.83 908.444 2484.19 910.049 2484.55 909.855 2484.91 907.832 2485.27 907.449 2485.63 908.95 2485.99 903.873 2486.35 907.974 2486.71 905.841 2487.07 905.315 2487.43 904.21 2487.79 902.581 2488.15 903.392 2488.51 902.405 2488.87 904.678 2489.22 901.684 2489.58 902.992 2489.94 897.693 2490.3 900.098 2490.66 905.669 2491.02 898.598 2491.38 904.226 2491.74 900.875 2492.1 905.495 2492.46 902.341 2492.82 903.346 2493.18 906.504 2493.54 903.724 2493.9 903.274 2494.26 907.914 2494.62 902.945 2494.98 906.057 2495.33 904.339 2495.69 902.06 2496.05 900.306 2496.41 903.517 2496.77 905.876 2497.13 902.409 2497.49 907.27 2497.85 904.2 2498.21 902.015 2498.57 902.758 2498.93 901.449 2499.29 912.052 2499.65 912.865 2500.01 905.463 2500.37 901.238 2500.73 907.637 2501.08 905.043 2501.44 902.568 2501.8 903.521 2502.16 905.369 2502.52 905.656 2502.88 907.231 2503.24 905.361 2503.6 904.204 2503.96 906.581 2504.32 907.075 2504.68 906.918 2505.04 908.018 2505.4 908.712 2505.76 907.785 2506.12 903.973 2506.48 907.89 2506.83 907.333 2507.19 905.529 2507.55 905.507 2507.91 906.66 2508.27 903.186 2508.63 908.361 2508.99 910.421 2509.35 908.1 2509.71 908.327 2510.07 907.194 2510.43 908.208 2510.79 908.687 2511.15 909.068 2511.51 907.143 2511.87 907.124 2512.23 906.208 2512.58 906.504 2512.94 909.042 2513.3 907.257 2513.66 908.571 2514.02 906.549 2514.38 905.022 2514.74 907.615 2515.1 907.737 2515.46 905.378 2515.82 906.796 2516.18 905.931 2516.54 905.798 2516.9 907.503 2517.26 906.638 2517.62 903.652 2517.98 902.53 2518.33 904.401 2518.69 903.153 2519.05 901.943 2519.41 901.565 2519.77 903.062 2520.13 901.013 2520.49 899.481 2520.85 905.977 2521.21 902.026 2521.57 903.122 2521.93 903.774 2522.29 904.543 2522.65 900.045 2523.01 901.685 2523.37 908.894 2523.73 903.76 2524.08 903.634 2524.44 907.103 2524.8 901.475 2525.16 899.048 2525.52 904.072 2525.88 904.11 2526.24 904.424 2526.6 907.648 2526.96 899.743 2527.32 901.093 2527.68 903.463 2528.04 903.999 2528.4 902.261 2528.76 906.221 2529.12 905.714 2529.48 907.992 2529.83 904.5 2530.19 896.508 2530.55 903.678 2530.91 899.78 2531.27 900.328 2531.63 899.92 2531.99 906.879 2532.35 905.306 2532.71 906.121 2533.07 907.441 2533.43 906.266 2533.79 908.139 2534.15 906.938 2534.51 906.921 2534.87 907.48 2535.23 907.474 2535.59 907.422 2535.94 904.6 2536.3 906.015 2536.66 904.757 2537.02 905.327 2537.38 908.953 2537.74 909.287 2538.1 910.209 2538.46 907.308 2538.82 907.329 2539.18 907.98 2539.54 908.756 2539.9 908.912 2540.26 908.539 2540.62 907.085 2540.98 907.826 2541.33 909.689 2541.69 910.342 2542.05 907.397 2542.41 909.082 2542.77 906.141 2543.13 904.143 2543.49 904.214 2543.85 905.499 2544.21 907.439 2544.57 904.149 2544.93 908.363 2545.29 906.848 2545.65 906.473 2546.01 908.583 2546.37 905.946 2546.73 903.114 2547.08 901.802 2547.44 902.901 2547.8 902.306 2548.16 899.557 2548.52 903.24 2548.88 905.304 2549.24 902.79 2549.6 903.682 2549.96 903.545 2550.32 902.384 2550.68 905.245 2551.04 905.449 2551.4 904.8 2551.76 904.37 2552.12 902.385 2552.48 905.732 2552.83 898.741 2553.19 906.757 2553.55 908.174 2553.91 900.696 2554.27 900.954 2554.63 908.587 2554.99 903.668 2555.35 906.499 2555.71 905.067 2556.07 900.911 2556.43 897.388 2556.79 900.986 2557.15 901.453 2557.51 906.226 2557.87 905.693 2558.23 909.823 2558.59 902.318 2558.94 895.27 2559.3 900.607 2559.66 899.343 2560.02 901.387 2560.38 901.199 2560.74 899.779 2561.1 904.304 2561.46 905.945 2561.82 907.758 2562.18 906.146 2562.54 905.957 2562.9 905.208 2563.26 905.069 2563.62 906.234 2563.98 907.611 2564.34 906.761 2564.69 905.913 2565.05 905.973 2565.41 905.201 2565.77 905.17 2566.13 908.225 2566.49 908.282 2566.85 907.852 2567.21 908.478 2567.57 909.481 2567.93 908.811 2568.29 907.168 2568.65 906.993 2569.01 908.029 2569.37 909.006 2569.73 908.096 2570.09 908.523 2570.44 909.699 2570.8 908.153 2571.16 907.436 2571.52 903.899 2571.88 906.418 2572.24 904.182 2572.6 908.093 2572.96 905.819 2573.32 908.112 2573.68 906.652 2574.04 906.316 2574.4 906.575 2574.76 906.146 2575.12 902.98 2575.48 905.045 2575.84 906.907 2576.19 905.93 2576.55 907.862 2576.91 901.917 2577.27 905.433 2577.63 900.875 2577.99 902.839 2578.35 904.306 2578.71 901.801 2579.07 902.39 2579.43 906.725 2579.79 905.978 2580.15 904.155 2580.51 908.998 2580.87 902.18 2581.23 905.364 2581.59 902.301 2581.95 899.645 2582.3 906.56 2582.66 903.271 2583.02 899.07 2583.38 901.305 2583.74 908.855 2584.1 905.167 2584.46 907.757 2584.82 903.769 2585.18 901.274 2585.54 900.191 2585.9 902.745 2586.26 907.577 2586.62 907.812 2586.98 907.645 2587.34 902.626 2587.7 900.586 2588.05 902.738 2588.41 903.47 2588.77 901.9 2589.13 901.45 2589.49 903.365 2589.85 902.341 2590.21 903.148 2590.57 907.377 2590.93 900.51 2591.29 901.061 2591.65 904.06 2592.01 899.818 2592.37 897.939 2592.73 906.258 2593.09 904.31 2593.45 904.422 2593.8 905.889 2594.16 903.657 2594.52 906.524 2594.88 907.776 2595.24 908.865 2595.6 909.963 2595.96 907.422 2596.32 907.477 2596.68 906.931 2597.04 907.342 2597.4 906.604 2597.76 908.256 2598.12 909.518 2598.48 906.009 2598.84 909.286 2599.2 908.276 2599.55 907.835 2599.91 908.387 2600.27 906.219 2600.63 904.834 2600.99 905.882 2601.35 904.448 2601.71 906.065 2602.07 906.207 2602.43 905.891 2602.79 905.643 2603.15 905.962 2603.51 906.39 2603.87 903.78 2604.23 903.68 2604.59 903.797 2604.95 904.513 2605.3 904.191 2605.66 905.008 2606.02 904.1 2606.38 902.379 2606.74 902.882 2607.1 899.61 2607.46 902.842 2607.82 901.071 2608.18 900.557 2608.54 899.171 2608.9 902.376 2609.26 904.725 2609.62 898.26 2609.98 905.164 2610.34 902.51 2610.7 904.948 2611.05 904.711 2611.41 907.407 2611.77 905.108 2612.13 899.815 2612.49 906.147 2612.85 906.469 2613.21 906.672 2613.57 906.803 2613.93 902.787 2614.29 896.43 2614.65 895.414 2615.01 906.53 2615.37 908.109 2615.73 906.675 2616.09 904.232 2616.45 901.057 2616.81 899.901 2617.16 899.283 2617.52 901.936 2617.88 903.594 2618.24 905.096 2618.6 905.521 2618.96 907.05 2619.32 905.278 2619.68 897.59 2620.04 899.119 2620.4 901.036 2620.76 896.089 2621.12 894.44 2621.48 896.844 2621.84 900.397 2622.2 904.315 2622.55 904.11 2622.91 903.706 2623.27 907.228 2623.63 905.599 2623.99 907.651 2624.35 907.983 2624.71 907.126 2625.07 907.496 2625.43 908.966 2625.79 907.067 2626.15 908.171 2626.51 908.572 2626.87 908.764 2627.23 906.156 2627.59 908.064 2627.95 907.332 2628.3 908.813 2628.66 905.298 2629.02 906.836 2629.38 906.584 2629.74 905.291 2630.1 905.933 2630.46 906.113 2630.82 906.641 2631.18 905.855 2631.54 904.627 2631.9 905.469 2632.26 906.037 2632.62 905.195 2632.98 903.595 2633.34 904.851 2633.7 904.962 2634.05 904.767 2634.41 906.389 2634.77 901.829 2635.13 904.571 2635.49 903.813 2635.85 902.254 2636.21 903.778 2636.57 905.788 2636.93 902.334 2637.29 902.026 2637.65 904.193 2638.01 899.148 2638.37 897.572 2638.73 902.441 2639.09 897.375 2639.45 902.656 2639.81 899.806 2640.16 904.765 2640.52 907.735 2640.88 905.114 2641.24 904.055 2641.6 905.908 2641.96 907.97 2642.32 907.667 2642.68 902.12 2643.04 902.149 2643.4 901.506 2643.76 904.526 2644.12 909.757 2644.48 908.797 2644.84 905.413 2645.2 904.777 2645.56 899.332 2645.91 901.381 2646.27 899.422 2646.63 903.856 2646.99 908.023 2647.35 906.968 2647.71 906.78 2648.07 907.352 2648.43 906.899 2648.79 902.849 2649.15 901.318 2649.51 904.713 2649.87 898.256 2650.23 902.251 2650.59 900.61 2650.95 904.95 2651.31 904.563 2651.66 906.531 2652.02 905.955 2652.38 906.559 2652.74 904.175 2653.1 906.898 2653.46 908.538 2653.82 907.39 2654.18 907.478 2654.54 907.626 2654.9 908.598 2655.26 909.416 2655.62 907.805 2655.98 907.097 2656.34 908.317 2656.7 908.525 2657.06 907.937 2657.41 906.094 2657.77 905.677 2658.13 905.41 2658.49 904.429 2658.85 903.444 2659.21 904.902 2659.57 904.878 2659.93 903.284 2660.29 904.071 2660.65 904.563 2661.01 905.252 2661.37 903.804 2661.73 905.194 2662.09 905.554 2662.45 904.52 2662.81 905.746 2663.17 903.536 2663.52 902.034 2663.88 902.785 2664.24 905.144 2664.6 900.473 2664.96 901.677 2665.32 900.073 2665.68 903.835 2666.04 902.958 2666.4 902.009 2666.76 901.505 2667.12 899.738 2667.48 900.305 2667.84 899.955 2668.2 902.048 2668.56 898.361 2668.92 896.966 2669.27 903.088 2669.63 901.363 2669.99 900.759 2670.35 898.902 2670.71 904.907 2671.07 908.405 2671.43 905.163 2671.79 898.53 2672.15 899.84 2672.51 903.058 2672.87 908.264 2673.23 908.024 2673.59 903.539 2673.95 903.276 2674.31 894.833 2674.67 902.842 2675.02 905.713 2675.38 905.144 2675.74 909.076 2676.1 908.287 2676.46 906.286 2676.82 906.12 2677.18 906.828 2677.54 897.552 2677.9 904.439 2678.26 907.045 2678.62 905.576 2678.98 904.647 2679.34 906.915 2679.7 904.139 2680.06 906 2680.42 907.098 2680.77 905.295 2681.13 905.326 2681.49 906.345 2681.85 903.681 2682.21 907.922 2682.57 906.883 2682.93 907.178 2683.29 907.797 2683.65 908.05 2684.01 909.549 2684.37 906.828 2684.73 905.864 2685.09 907.366 2685.45 907.487 2685.81 908.634 2686.17 907.614 2686.52 904.461 2686.88 907.163 2687.24 907.974 2687.6 907.654 2687.96 906.888 2688.32 905.238 2688.68 908.826 2689.04 905.845 2689.4 904.098 2689.76 906.893 2690.12 905.321 2690.48 904.723 2690.84 906.581 2691.2 906.666 2691.56 904.82 2691.92 905.282 2692.27 904.709 2692.63 903.9 2692.99 899.728 2693.35 903.309 2693.71 895.892 2694.07 897.118 2694.43 903.397 2694.79 901.443 2695.15 904.049 2695.51 900.174 2695.87 902.297 2696.23 903.962 2696.59 901.826 2696.95 899.948 2697.31 899.713 2697.67 905.221 2698.02 902.624 2698.38 902.093 2698.74 900.601 2699.1 894.714 2699.46 899.762 2699.82 896.222 2700.18 898.389 2700.54 905.452 2700.9 902.814 2701.26 895.845 2701.62 904.025 2701.98 908.491 2702.34 906.922 2702.7 902.151 2703.06 899.185 2703.42 906.149 2703.77 906.397 2704.13 905.288 2704.49 906.663 2704.85 907.553 2705.21 902.454 2705.57 899.526 2705.93 906.71 2706.29 906.987 2706.65 908.699 2707.01 906.24 2707.37 903.628 2707.73 906.778 2708.09 907.153 2708.45 906.907 2708.81 908.768 2709.17 908.128 2709.52 907.236 2709.88 908.399 2710.24 908.26 2710.6 906.738 2710.96 907.992 2711.32 908.122 2711.68 907.765 2712.04 905.543 2712.4 908.211 2712.76 909.043 2713.12 907.51 2713.48 906.541 2713.84 908.192 2714.2 908.18 2714.56 909.347 2714.92 906.51 2715.27 907.888 2715.63 906.322 2715.99 906.025 2716.35 905.136 2716.71 906.836 2717.07 908.379 2717.43 909.922 2717.79 907.775 2718.15 907.493 2718.51 907.653 2718.87 908.076 2719.23 904.653 2719.59 904.457 2719.95 904.345 2720.31 904.204 2720.67 906.454 2721.02 905.719 2721.38 904.191 2721.74 904.567 2722.1 903.4 2722.46 902.406 2722.82 901.8 2723.18 904.008 2723.54 900.435 2723.9 904.691 2724.26 896.75 2724.62 901.662 2724.98 901.237 2725.34 903.054 2725.7 899.927 2726.06 902.643 2726.42 902.896 2726.78 900.99 2727.13 904.204 2727.49 903.377 2727.85 907.076 2728.21 906.428 2728.57 908.801 2728.93 908.516 2729.29 905.494 2729.65 905.191 2730.01 906.936 2730.37 907.386 2730.73 906.563 2731.09 906.243 2731.45 907.333 2731.81 907.453 2732.17 907.549 2732.53 905.306 2732.88 905.877 2733.24 907.694 2733.6 904.453 2733.96 903.179 2734.32 901.171 2734.68 908.824 2735.04 908.064 2735.4 906.623 2735.76 901.739 2736.12 906.255 2736.48 908.984 2736.84 907.936 2737.2 908.853 2737.56 910.33 2737.92 908.65 2738.28 909.154 2738.63 907.695 2738.99 904.283 2739.35 897.964 2739.71 905.5 2740.07 906.188 2740.43 906.191 2740.79 907.211 2741.15 908.066 2741.51 907.344 2741.87 906.713 2742.23 906.775 2742.59 907.563 2742.95 907.864 2743.31 907.509 2743.67 906.316 2744.03 906.903 2744.38 906.118 2744.74 905.542 2745.1 905.723 2745.46 905.846 2745.82 905.696 2746.18 906.147 2746.54 906.727 2746.9 905.845 2747.26 903.354 2747.62 905.561 2747.98 905.642 2748.34 905.595 2748.7 904.154 2749.06 903.587 2749.42 906.945 2749.78 906.097 2750.14 907.497 2750.49 906.258 2750.85 905.074 2751.21 904.894 2751.57 903.826 2751.93 905.685 2752.29 904.359 2752.65 904.666 2753.01 902.33 2753.37 900.573 2753.73 898.365 2754.09 905.19 2754.45 897.782 2754.81 902.272 2755.17 903.224 2755.53 903.027 2755.89 906.636 2756.24 906.714 2756.6 907.729 2756.96 906.436 2757.32 905.557 2757.68 907.002 2758.04 905.809 2758.4 907.502 2758.76 906.808 2759.12 907.165 2759.48 907.179 2759.84 907.168 2760.2 906.8 2760.56 904.563 2760.92 904.689 2761.28 905.317 2761.64 906.483 2761.99 909.306 2762.35 906.09 2762.71 904.096 2763.07 907.184 2763.43 909.24 2763.79 907.968 2764.15 904.539 2764.51 902.174 2764.87 908.547 2765.23 906.566 2765.59 907.748 2765.95 909.019 2766.31 909.256 2766.67 908.881 2767.03 906.425 2767.39 905.842 2767.74 906.764 2768.1 906.962 2768.46 906.405 2768.82 905.956 2769.18 909.083 2769.54 907.196 2769.9 909.062 2770.26 908.973 2770.62 904.979 2770.98 906.596 2771.34 908.193 2771.7 905.269 2772.06 904.708 2772.42 905.426 2772.78 905.303 2773.14 904.515 2773.49 906.223 2773.85 907.51 2774.21 905.62 2774.57 905.938 2774.93 906.039 2775.29 904.52 2775.65 905.102 2776.01 902.917 2776.37 906.246 2776.73 908.408 2777.09 906.807 2777.45 904.213 2777.81 906.885 2778.17 907.887 2778.53 908.797 2778.89 906.185 2779.24 909.289 2779.6 904.88 2779.96 905.661 2780.32 903.754 2780.68 905.52 2781.04 904.376 2781.4 906.405 2781.76 902.602 2782.12 905.148 2782.48 905.521 2782.84 905.399 2783.2 902.487 2783.56 899.753 2783.92 901.695 2784.28 897.667 2784.64 904.181 2784.99 906.013 2785.35 903.247 2785.71 905.495 2786.07 907.837 2786.43 906.854 2786.79 908.212 2787.15 907.837 2787.51 907.951 2787.87 908.695 2788.23 909.322 2788.59 907.858 2788.95 908.026 2789.31 907.191 2789.67 907.872 2790.03 909.232 2790.39 907.082 2790.74 908.924 2791.1 908.182 2791.46 907.817 2791.82 907.833 2792.18 906.928 2792.54 907.516 2792.9 904.948 2793.26 907.116 2793.62 907.877 2793.98 908.558 2794.34 907.934 2794.7 909.294 2795.06 907.564 2795.42 906 2795.78 905.715 2796.14 908.216 2796.49 910.194 2796.85 906.853 2797.21 907.923 2797.57 907.729 2797.93 907.53 2798.29 909.124 2798.65 908.989 2799.01 907.264 2799.37 904.068 2799.73 908.316 2800.09 907.986 2800.45 905.491 2800.81 906.805 2801.17 909.288 2801.53 908.198 2801.89 908.311 2802.24 909.674 2802.6 908.539 2802.96 907.308 2803.32 905.176 2803.68 906.113 2804.04 903.402 2804.4 905.441 2804.76 903.292 2805.12 905.863 2805.48 906.9 2805.84 911.189 2806.2 907.847 2806.56 908.473 2806.92 907.187 2807.28 907.806 2807.64 908.745 2808 908.339 2808.35 907.422 2808.71 904.117 2809.07 903.531 2809.43 907.564 2809.79 907.339 2810.15 907.529 2810.51 905.931 2810.87 905.636 2811.23 904.605 2811.59 905.369 2811.95 906.35 2812.31 906.558 2812.67 902.482 2813.03 903.166 2813.39 900.584 2813.75 898.276 2814.1 900.581 2814.46 903.468 2814.82 906.766 2815.18 908.102 2815.54 909.092 2815.9 907.992 2816.26 908.374 2816.62 906.428 2816.98 907.259 2817.34 908.054 2817.7 908.509 2818.06 906.911 2818.42 909.422 2818.78 907.477 2819.14 908.206 2819.5 906.821 2819.85 905.612 2820.21 907.383 2820.57 908.675 2820.93 907.815 2821.29 907.401 2821.65 907.051 2822.01 909.315 2822.37 907.298 2822.73 906.949 2823.09 906.878 2823.45 906.119 2823.81 905.58 2824.17 905.028 2824.53 906.951 2824.89 908.513 2825.25 906.341 2825.6 909.124 2825.96 908.933 2826.32 909.476 2826.68 907.329 2827.04 907.898 2827.4 908.15 2827.76 904.826 2828.12 905.1 2828.48 908.788 2828.84 907.222 2829.2 904.904 2829.56 907.702 2829.92 905.827 2830.28 906.95 2830.64 910.309 2831 906.09 2831.35 906.154 2831.71 908.166 2832.07 901.863 2832.43 903.082 2832.79 905.438 2833.15 903.518 2833.51 905.922 2833.87 906.576 2834.23 907.512 2834.59 907.934 2834.95 909.526 2835.31 910.834 2835.67 909.224 2836.03 907.452 2836.39 907.602 2836.75 905.681 2837.1 905.639 2837.46 905.975 2837.82 905.684 2838.18 909.314 2838.54 905.734 2838.9 907.384 2839.26 908.532 2839.62 906.996 2839.98 906.381 2840.34 908.091 2840.7 905.959 2841.06 904.92 2841.42 905.932 2841.78 906.041 2842.14 905.43 2842.5 904.955 2842.85 903.473 2843.21 904.31 2843.57 898.849 2843.93 902.451 2844.29 904.431 2844.65 906.636 2845.01 906.397 2845.37 907.301 2845.73 904.626 2846.09 908.349 2846.45 908.976 2846.81 906.934 2847.17 907.246 2847.53 907.7 2847.89 908.187 2848.25 908.368 2848.61 908.593 2848.96 908.669 2849.32 908.734 2849.68 906.781 2850.04 908.152 2850.4 907.989 2850.76 905.982 2851.12 908.098 2851.48 907.089 2851.84 904.782 2852.2 907.676 2852.56 907.282 2852.92 907.466 2853.28 909.473 2853.64 908.277 2854 908.647 2854.36 908.846 2854.71 908.725 2855.07 907.111 2855.43 907.818 2855.79 907.186 2856.15 906.586 2856.51 904.487 2856.87 904.243 2857.23 908.329 2857.59 910.859 2857.95 906.419 2858.31 905.622 2858.67 906.162 2859.03 908.034 2859.39 902.153 2859.75 902.639 2860.11 904.029 2860.46 901.493 2860.82 904.338 2861.18 903.987 2861.54 904.015 2861.9 907.646 2862.26 906.668 2862.62 905.691 2862.98 904.503 2863.34 905.178 2863.7 906.393 2864.06 908.426 2864.42 907.363 2864.78 905.778 2865.14 905.364 2865.5 906.362 2865.86 907.823 2866.21 906.498 2866.57 903.733 2866.93 904.574 2867.29 906.336 2867.65 907.627 2868.01 908.793 2868.37 907.79 2868.73 907.443 2869.09 908.093 2869.45 909.5 2869.81 908.551 2870.17 907.369 2870.53 906.543 2870.89 908.103 2871.25 908.09 2871.61 907.101 2871.96 904.907 2872.32 907.784 2872.68 906.257 2873.04 907.604 2873.4 902.176 2873.76 900.042 2874.12 903.114 2874.48 899.931 2874.84 904.24 2875.2 901.948 2875.56 903.922 2875.92 905.285 2876.28 906.981 2876.64 906.091 2877 908.096 2877.36 906.994 2877.71 907.721 2878.07 905.522 2878.43 907.467 2878.79 908.668 2879.15 907.786 2879.51 906.992 2879.87 906.155 2880.23 907.128 2880.59 910.19 2880.95 909.059 2881.31 909.643 2881.67 908.483 2882.03 908.351 2882.39 908.608 2882.75 908.104 2883.11 907.802 2883.46 909.913 2883.82 908.7 2884.18 910.284 2884.54 908.608 2884.9 906.566 2885.26 906.72 2885.62 908.297 2885.98 905.587 2886.34 904.678 2886.7 905.826 2887.06 906.929 2887.42 904.391 2887.78 904.292 2888.14 904.404 2888.5 901.28 2888.86 904.26 2889.21 903.705 2889.57 904.43 2889.93 908.126 2890.29 909.413 2890.65 910.792 2891.01 909.188 2891.37 909.461 2891.73 907.432 2892.09 907.629 2892.45 906.213 2892.81 902.589 2893.17 903.322 2893.53 901.373 2893.89 904.338 2894.25 904.212 2894.61 906.172 2894.97 905.335 2895.32 905.35 2895.68 908.274 2896.04 907.451 2896.4 907.915 2896.76 905.865 2897.12 907.911 2897.48 908.222 2897.84 908.691 2898.2 907.009 2898.56 907.766 2898.92 907.351 2899.28 906.981 2899.64 906.252 2900 907.321 2900.36 906.759 2900.72 904.908 2901.07 904.668 2901.43 904.893 2901.79 906.558 2902.15 904.478 2902.51 907.25 2902.87 906.483 2903.23 902.812 2903.59 902.532 2903.95 898.611 2904.31 898.468 2904.67 901.873 2905.03 903.391 2905.39 901.257 2905.75 896.38 2906.11 896.827 2906.47 903.271 2906.82 893.637 2907.18 897.807 2907.54 900.936 2907.9 895.59 2908.26 902.549 2908.62 904.284 2908.98 906.181 2909.34 907.759 2909.7 907.65 2910.06 908.193 2910.42 906.853 2910.78 907.832 2911.14 909.237 2911.5 906.34 2911.86 909.831 2912.22 904.888 2912.57 908.354 2912.93 909.008 2913.29 908.862 2913.65 905.024 2914.01 902.315 2914.37 904.076 2914.73 905.35 2915.09 906.831 2915.45 906.148 2915.81 906.072 2916.17 903.824 2916.53 904.607 2916.89 903.005 2917.25 904.627 2917.61 904.924 2917.97 904.228 2918.32 906.497 2918.68 905.713 2919.04 905.173 2919.4 905.198 2919.76 907.753 2920.12 907.534 2920.48 907.883 2920.84 907.049 2921.2 905.108 2921.56 903.978 2921.92 904.612 2922.28 902.793 2922.64 905.775 2923 906.364 2923.36 906.054 2923.72 906.035 2924.07 904.624 2924.43 909.032 2924.79 909.02 2925.15 907.234 2925.51 909.049 2925.87 907.839 2926.23 907.009 2926.59 908.512 2926.95 905.573 2927.31 903.737 2927.67 907.632 2928.03 907.085 2928.39 904.256 2928.75 909.13 2929.11 905.269 2929.47 907.904 2929.83 907.154 2930.18 905.396 2930.54 904.832 2930.9 904.846 2931.26 905.432 2931.62 907.177 2931.98 905.404 2932.34 907.922 2932.7 904.457 2933.06 904.208 2933.42 903.896 2933.78 901.622 2934.14 900.075 2934.5 899.116 2934.86 895.361 2935.22 900.256 2935.58 885.338 2935.93 887.159 2936.29 893.345 2936.65 899.503 2937.01 895.007 2937.37 897.057 2937.73 896.781 2938.09 901.175 2938.45 902.539 2938.81 902.501 2939.17 904.129 2939.53 905.238 2939.89 907.175 2940.25 906.7 2940.61 907.134 2940.97 907.019 2941.33 908.866 2941.68 909.812 2942.04 909.271 2942.4 906.644 2942.76 904.704 2943.12 904.842 2943.48 903.662 2943.84 905.119 2944.2 906.853 2944.56 905.977 2944.92 905.361 2945.28 903.247 2945.64 905.473 2946 907.727 2946.36 905.938 2946.72 908.954 2947.08 905.519 2947.43 906.108 2947.79 905.917 2948.15 906.375 2948.51 905.118 2948.87 909.201 2949.23 905.231 2949.59 900.559 2949.95 899.934 2950.31 903.044 2950.67 904.107 2951.03 903.616 2951.39 904.88 2951.75 907.905 2952.11 905.868 2952.47 908.054 2952.83 908.265 2953.18 907.46 2953.54 908.912 2953.9 907.816 2954.26 908.635 2954.62 906.341 2954.98 907.863 2955.34 903.666 2955.7 903.543 2956.06 904.171 2956.42 907.761 2956.78 905.18 2957.14 907.518 2957.5 908.956 2957.86 906.552 2958.22 905.443 2958.58 906.912 2958.93 907.158 2959.29 909.699 2959.65 906.853 2960.01 907.553 2960.37 904.18 2960.73 906.274 2961.09 906.471 2961.45 906.855 2961.81 905.626 2962.17 906.537 2962.53 904.793 2962.89 906.158 2963.25 905.675 2963.61 899.236 2963.97 904.534 2964.33 899.5 2964.68 894.156 2965.04 886.643 2965.4 891.272 2965.76 886.34 2966.12 887.385 2966.48 897.781 2966.84 893.852 2967.2 903.394 2967.56 897.912 2967.92 899.323 2968.28 898.382 2968.64 898.295 2969 900.322 2969.36 898.527 2969.72 901.014 2970.08 903.466 2970.43 906.411 2970.79 904.825 2971.15 904.07 2971.51 904.717 2971.87 908.364 2972.23 907.063 2972.59 907.217 2972.95 906.506 2973.31 906.278 2973.67 907.509 2974.03 904.461 2974.39 909.486 2974.75 905.707 2975.11 905.576 2975.47 904.855 2975.83 903.819 2976.19 905.52 2976.54 906.332 2976.9 907.036 2977.26 905.881 2977.62 903.857 2977.98 901.889 2978.34 903.815 2978.7 904.508 2979.06 901.311 2979.42 903.178 2979.78 908.047 2980.14 906.635 2980.5 909.933 2980.86 907.064 2981.22 908.289 2981.58 907.97 2981.94 905.719 2982.29 905.782 2982.65 905.077 2983.01 906.078 2983.37 904.63 2983.73 907.55 2984.09 904.92 2984.45 903.419 2984.81 904.668 2985.17 905.304 2985.53 905.872 2985.89 907.783 2986.25 906.492 2986.61 908.734 2986.97 909.41 2987.33 910.194 2987.69 908.305 2988.04 908.469 2988.4 906.326 2988.76 908.281 2989.12 902.794 2989.48 906.008 2989.84 904.577 2990.2 908.115 2990.56 902.934 2990.92 906.729 2991.28 904.703 2991.64 905.706 2992 905.405 2992.36 905.382 2992.72 903.163 2993.08 905.367 2993.44 900.998 2993.79 900.77 2994.15 896.7 2994.51 883.394 2994.87 888.473 2995.23 886.357 2995.59 897.879 2995.95 894.336 2996.31 900.888 2996.67 900.982 2997.03 893.081 2997.39 893.362 2997.75 887.319 2998.11 893.491 2998.47 901.21 2998.83 904.118 2999.19 898.737 2999.54 901.307 2999.9 898.82 3000.26 904.3 3000.62 905.065 3000.98 906.151 3001.34 903.946 3001.7 906.098 3002.06 906.591 3002.42 906.185 3002.78 906.995 3003.14 906.523 3003.5 905 3003.86 907.884 3004.22 907.846 3004.58 907.753 3004.94 907.121 3005.29 904.263 3005.65 905.366 3006.01 902.918 3006.37 903.558 3006.73 904.138 3007.09 905.097 3007.45 903.701 3007.81 904.133 3008.17 902.216 3008.53 910.302 3008.89 907.492 3009.25 906.833 3009.61 906.324 3009.97 907.23 3010.33 907.809 3010.69 905.724 3011.04 905.509 3011.4 909.184 3011.76 903.691 3012.12 904.11 3012.48 906.29 3012.84 904.609 3013.2 902.188 3013.56 904.178 3013.92 906.668 3014.28 904.789 3014.64 906.577 3015 908.518 3015.36 910.045 3015.72 910.377 3016.08 907.521 3016.44 910.042 3016.8 906.847 3017.15 908.223 3017.51 904.594 3017.87 901.612 3018.23 904.928 3018.59 907.991 3018.95 900.934 3019.31 907.076 3019.67 905.069 3020.03 904.927 3020.39 905.404 3020.75 904.393 3021.11 905.76 3021.47 905.727 3021.83 906.639 3022.19 906.597 3022.55 906.588 3022.9 903.903 3023.26 903.796 3023.62 901.445 3023.98 893.882 3024.34 896.44 3024.7 893.047 3025.06 888.618 3025.42 895.847 3025.78 884.453 3026.14 887.733 3026.5 889.869 3026.86 888.436 3027.22 885.475 3027.58 890.293 3027.94 893.462 3028.3 894.865 3028.65 902.022 3029.01 904.923 3029.37 905.891 3029.73 904.281 3030.09 906.165 3030.45 906.405 3030.81 905.924 3031.17 907.908 3031.53 908.119 3031.89 909.796 3032.25 909.173 3032.61 909.074 3032.97 907.08 3033.33 906.234 3033.69 902.943 3034.05 902.231 3034.4 902.249 3034.76 901.529 3035.12 899.346 3035.48 903.43 3035.84 901.208 3036.2 907.521 3036.56 908.971 3036.92 908.278 3037.28 906.283 3037.64 904.903 3038 904.081 3038.36 906.526 3038.72 909.067 3039.08 909.632 3039.44 907.873 3039.8 905.315 3040.15 906.184 3040.51 901.875 3040.87 902.168 3041.23 907.177 3041.59 901.92 3041.95 904.14 3042.31 905.242 3042.67 906.576 3043.03 906.29 3043.39 906.069 3043.75 907.083 3044.11 906.59 3044.47 907.156 3044.83 906.161 3045.19 905.903 3045.55 906.628 3045.9 907.931 3046.26 904.944 3046.62 905.183 3046.98 904.872 3047.34 903.306 3047.7 905.398 3048.06 905.832 3048.42 904.966 3048.78 908.838 3049.14 906.244 3049.5 905.77 3049.86 908.158 3050.22 905.869 3050.58 905.164 3050.94 905.934 3051.3 906.344 3051.65 906.453 3052.01 905.385 3052.37 904.719 3052.73 905.305 3053.09 903.331 3053.45 905.108 3053.81 904.108 3054.17 905.295 3054.53 893.544 3054.89 893.221 3055.25 888.595 3055.61 892.039 3055.97 898.132 3056.33 893.023 3056.69 899.561 3057.05 896.188 3057.4 901.112 3057.76 904.713 3058.12 903.296 3058.48 904.134 3058.84 904.9 3059.2 904.51 3059.56 905.378 3059.92 905.744 3060.28 907.236 3060.64 903.569 3061 903.201 3061.36 904.485 3061.72 904.005 3062.08 904.525 3062.44 898.901 3062.8 905.624 3063.16 903.005 3063.51 902.428 3063.87 903.068 3064.23 905.679 3064.59 908.736 3064.95 905.97 3065.31 908.245 3065.67 908.602 3066.03 908.713 3066.39 905.982 3066.75 905.375 3067.11 908.102 3067.47 905.729 3067.83 907.541 3068.19 904.651 3068.55 902.456 3068.91 903.166 3069.26 898.643 3069.62 902.796 3069.98 906.551 3070.34 907.137 3070.7 906.465 3071.06 906.459 3071.42 908.374 3071.78 907.88 3072.14 905.188 3072.5 905.928 3072.86 909.361 3073.22 905.528 3073.58 908.811 3073.94 911.213 3074.3 906.561 3074.66 905.162 3075.01 903.934 3075.37 903.991 3075.73 902.641 3076.09 904.108 3076.45 902.492 3076.81 907.427 3077.17 906.192 3077.53 904.554 3077.89 905.895 3078.25 906.695 3078.61 906.288 3078.97 905.861 3079.33 909.217 3079.69 910.653 3080.05 902.344 3080.41 904.79 3080.76 905.314 3081.12 902.388 3081.48 905.611 3081.84 905.808 3082.2 907.995 3082.56 905.393 3082.92 904.469 3083.28 905.344 3083.64 900.368 3084 896.507 3084.36 896.071 3084.72 889.06 3085.08 889.801 3085.44 892.176 3085.8 899.362 3086.16 902.029 3086.51 907.553 3086.87 906.653 3087.23 906.487 3087.59 903.899 3087.95 905.628 3088.31 902.825 3088.67 904.229 3089.03 903.668 3089.39 906.33 3089.75 903.808 3090.11 905.349 3090.47 905.483 3090.83 903.721 3091.19 903.253 3091.55 908.038 3091.91 900.454 3092.26 903.044 3092.62 904.64 3092.98 904.491 3093.34 904.89 3093.7 904.362 3094.06 904.994 3094.42 903.974 3094.78 906.103 3095.14 907.159 3095.5 905.202 3095.86 909.167 3096.22 905.971 3096.58 905.901 3096.94 903.021 3097.3 903.971 3097.66 904.689 3098.02 903.127 3098.37 905.841 3098.73 906.093 3099.09 905.979 3099.45 904.896 3099.81 905.005 3100.17 903.306 3100.53 906.919 3100.89 906.977 3101.25 907.098 3101.61 906.45 3101.97 905.932 3102.33 906.009 3102.69 904.034 3103.05 904.659 3103.41 904.219 3103.77 900.036 3104.12 904.062 3104.48 904.751 3104.84 905.779 3105.2 906.835 3105.56 902.713 3105.92 903.521 3106.28 905.574 3106.64 903.141 3107 905.027 3107.36 906.537 3107.72 905.354 3108.08 902.15 3108.44 903.221 3108.8 911.815 3109.16 906.574 3109.52 905.308 3109.87 899.269 3110.23 903.284 3110.59 901.337 3110.95 901.392 3111.31 904.079 3111.67 906.7 3112.03 905.229 3112.39 906.709 3112.75 903.615 3113.11 903.758 3113.47 903.585 3113.83 899.743 3114.19 896.773 3114.55 899.236 3114.91 901.319 3115.27 904 3115.62 906.474 3115.98 904.506 3116.34 906.529 3116.7 903.856 3117.06 905.273 3117.42 906.687 3117.78 903.07 3118.14 898.786 3118.5 903.805 3118.86 899.746 3119.22 900.194 3119.58 898.708 3119.94 899.774 3120.3 905.064 3120.66 902.997 3121.02 903.025 3121.37 903.82 3121.73 903.423 3122.09 903.612 3122.45 899.066 3122.81 904.445 3123.17 904.563 3123.53 906.113 3123.89 905.582 3124.25 902.872 3124.61 903.428 3124.97 906.838 3125.33 903.903 3125.69 905.332 3126.05 906.345 3126.41 901.337 3126.77 902.901 3127.12 906.241 3127.48 908.144 3127.84 901.773 3128.2 906.784 3128.56 908.22 3128.92 907.235 3129.28 909.225 3129.64 906.754 3130 906.597 3130.36 905.309 3130.72 906.426 3131.08 902.843 3131.44 903.477 3131.8 901.087 3132.16 903.604 3132.52 901.444 3132.87 901.048 3133.23 906.175 3133.59 905.978 3133.95 900.814 3134.31 901.639 3134.67 904.858 3135.03 906.327 3135.39 906.578 3135.75 905.675 3136.11 905.605 3136.47 905.821 3136.83 904.937 3137.19 907.347 3137.55 902.984 3137.91 901.862 3138.27 903.51 3138.62 901.833 3138.98 903.627 3139.34 903.197 3139.7 904.702 3140.06 907.142 3140.42 905.704 3140.78 904.826 3141.14 904.171 3141.5 904.671 3141.86 904.847 3142.22 906.787 3142.58 905.341 3142.94 904.27 3143.3 901.717 3143.66 904.713 3144.02 903.464 3144.38 903.104 3144.73 904.194 3145.09 903.383 3145.45 907.465 3145.81 903.557 3146.17 902.565" stroke="#4472C4" stroke-width="6.875" stroke-linecap="round" stroke-linejoin="round" stroke-miterlimit="10" fill="none"/></g><g clip-path="url(#clip6)"><text fill="#595959" font-family="Calibri,Calibri_MSFontService,sans-serif" font-weight="400" font-size="41" transform="matrix(1 0 0 1 1793.6 1519)">0</text></g><g clip-path="url(#clip7)"><text fill="#595959" font-family="Calibri,Calibri_MSFontService,sans-serif" font-weight="400" font-size="41" transform="matrix(1 0 0 1 1762.29 1401)">0.2</text></g><g clip-path="url(#clip8)"><text fill="#595959" font-family="Calibri,Calibri_MSFontService,sans-serif" font-weight="400" font-size="41" transform="matrix(1 0 0 1 1762.29 1282)">0.4</text></g><g clip-path="url(#clip9)"><text fill="#595959" font-family="Calibri,Calibri_MSFontService,sans-serif" font-weight="400" font-size="41" transform="matrix(1 0 0 1 1762.29 1163)">0.6</text></g><g clip-path="url(#clip10)"><text fill="#595959" font-family="Calibri,Calibri_MSFontService,sans-serif" font-weight="400" font-size="41" transform="matrix(1 0 0 1 1762.29 1044)">0.8</text></g><g clip-path="url(#clip11)"><text fill="#595959" font-family="Calibri,Calibri_MSFontService,sans-serif" font-weight="400" font-size="41" transform="matrix(1 0 0 1 1793.6 925)">1</text></g><g clip-path="url(#clip12)"><text fill="#595959" font-family="Calibri,Calibri_MSFontService,sans-serif" font-weight="400" font-size="41" transform="matrix(1 0 0 1 1762.29 806)">1.2</text></g><g clip-path="url(#clip13)"><text fill="#595959" font-family="Calibri,Calibri_MSFontService,sans-serif" font-weight="400" font-size="41" transform="matrix(1 0 0 1 1842.31 1573)">0</text></g><g clip-path="url(#clip14)"><text fill="#595959" font-family="Calibri,Calibri_MSFontService,sans-serif" font-weight="400" font-size="41" transform="matrix(1 0 0 1 2001.1 1573)">500</text></g><g clip-path="url(#clip15)"><text fill="#595959" font-family="Calibri,Calibri_MSFontService,sans-serif" font-weight="400" font-size="41" transform="matrix(1 0 0 1 2170.34 1573)">1000</text></g><g clip-path="url(#clip16)"><text fill="#595959" font-family="Calibri,Calibri_MSFontService,sans-serif" font-weight="400" font-size="41" transform="matrix(1 0 0 1 2350.03 1573)">1500</text></g><g clip-path="url(#clip17)"><text fill="#595959" font-family="Calibri,Calibri_MSFontService,sans-serif" font-weight="400" font-size="41" transform="matrix(1 0 0 1 2529.72 1573)">2000</text></g><g clip-path="url(#clip18)"><text fill="#595959" font-family="Calibri,Calibri_MSFontService,sans-serif" font-weight="400" font-size="41" transform="matrix(1 0 0 1 2709.41 1573)">2500</text></g><g clip-path="url(#clip19)"><text fill="#595959" font-family="Calibri,Calibri_MSFontService,sans-serif" font-weight="400" font-size="41" transform="matrix(1 0 0 1 2889.1 1573)">3000</text></g><g clip-path="url(#clip20)"><text fill="#595959" font-family="Calibri,Calibri_MSFontService,sans-serif" font-weight="400" font-size="41" transform="matrix(1 0 0 1 3068.79 1573)">3500</text></g><g clip-path="url(#clip21)"><text fill="#595959" font-family="Calibri,Calibri_MSFontService,sans-serif" font-weight="400" font-size="41" transform="matrix(1 0 0 1 3248.48 1573)">4000</text></g><g clip-path="url(#clip22)"><text fill="#595959" font-family="Calibri,Calibri_MSFontService,sans-serif" font-weight="400" font-size="64" transform="matrix(1 0 0 1 2243.43 720)">% CHANGE BRIGHTNESS</text></g><rect x="1733.5" y="624.5" width="1649" height="990" stroke="#D9D9D9" stroke-width="3.4375" stroke-linejoin="round" stroke-miterlimit="10" fill="none"/></g></svg>