<svg width="1653" height="992" xmlns="http://www.w3.org/2000/svg" xmlns:xlink="http://www.w3.org/1999/xlink" overflow="hidden"><defs><clipPath id="clip0"><rect x="2565" y="566" width="1653" height="992"/></clipPath><clipPath id="clip1"><rect x="2565" y="566" width="1650" height="990"/></clipPath><clipPath id="clip2"><rect x="2565" y="566" width="1650" height="990"/></clipPath><clipPath id="clip3"><rect x="2565" y="566" width="1650" height="990"/></clipPath><clipPath id="clip4"><rect x="2565" y="566" width="1650" height="990"/></clipPath><clipPath id="clip5"><rect x="2686" y="736" width="1440" height="717"/></clipPath><clipPath id="clip6"><rect x="2565" y="566" width="1650" height="990"/></clipPath><clipPath id="clip7"><rect x="2565" y="566" width="1650" height="990"/></clipPath><clipPath id="clip8"><rect x="2565" y="566" width="1650" height="990"/></clipPath><clipPath id="clip9"><rect x="2565" y="566" width="1650" height="990"/></clipPath><clipPath id="clip10"><rect x="2565" y="566" width="1650" height="990"/></clipPath><clipPath id="clip11"><rect x="2565" y="566" width="1650" height="990"/></clipPath><clipPath id="clip12"><rect x="2565" y="566" width="1650" height="990"/></clipPath><clipPath id="clip13"><rect x="2565" y="566" width="1650" height="990"/></clipPath><clipPath id="clip14"><rect x="2565" y="566" width="1650" height="990"/></clipPath><clipPath id="clip15"><rect x="2565" y="566" width="1650" height="990"/></clipPath><clipPath id="clip16"><rect x="2565" y="566" width="1650" height="990"/></clipPath><clipPath id="clip17"><rect x="2565" y="566" width="1650" height="990"/></clipPath><clipPath id="clip18"><rect x="2565" y="566" width="1650" height="990"/></clipPath><clipPath id="clip19"><rect x="2565" y="566" width="1650" height="990"/></clipPath><clipPath id="clip20"><rect x="2565" y="566" width="1650" height="990"/></clipPath><clipPath id="clip21"><rect x="2565" y="566" width="1650" height="990"/></clipPath><clipPath id="clip22"><rect x="2565" y="566" width="1650" height="990"/></clipPath></defs><g clip-path="url(#clip0)" transform="translate(-2565 -566)"><rect x="2566" y="567" width="1650" height="989" fill="#FFFFFF"/><g clip-path="url(#clip1)"><path d="M2686.01 1331.23 4123.53 1331.23M2686.01 1212.28 4123.53 1212.28M2686.01 1093.34 4123.53 1093.34M2686.01 974.389 4123.53 974.389M2686.01 855.442 4123.53 855.442M2686.01 736.496 4123.53 736.496" stroke="#D9D9D9" stroke-width="3.4375" stroke-linejoin="round" stroke-miterlimit="10" fill="none"/></g><g clip-path="url(#clip2)"><path d="M2865.7 736.496 2865.7 1450.17M3045.39 736.496 3045.39 1450.17M3225.08 736.496 3225.08 1450.17M3404.77 736.496 3404.77 1450.17M3584.46 736.496 3584.46 1450.17M3764.15 736.496 3764.15 1450.17M3943.84 736.496 3943.84 1450.17M4123.53 736.496 4123.53 1450.17" stroke="#D9D9D9" stroke-width="3.4375" stroke-linejoin="round" stroke-miterlimit="10" fill="none"/></g><g clip-path="url(#clip3)"><path d="M0 0 0.000360892 714" stroke="#BFBFBF" stroke-width="3.4375" stroke-linejoin="round" stroke-miterlimit="10" fill="none" fill-rule="evenodd" transform="matrix(1 0 0 -1 2686.5 1450.5)"/></g><g clip-path="url(#clip4)"><path d="M2686.5 1450.5 4123.5 1450.5" stroke="#BFBFBF" stroke-width="3.4375" stroke-linejoin="round" stroke-miterlimit="10" fill="none" fill-rule="evenodd"/></g><g clip-path="url(#clip5)"><path d="M2686.01 839.703 2686.37 843.345 2686.73 839.341 2687.09 845.606 2687.45 846.383 2687.81 841.705 2688.17 841.74 2688.53 845.755 2688.89 847.028 2689.25 845.819 2689.61 846.772 2689.97 849.173 2690.33 845.345 2690.68 847.851 2691.04 846.034 2691.4 849.348 2691.76 845.807 2692.12 845.968 2692.48 846.897 2692.84 845.726 2693.2 848.795 2693.56 847.209 2693.92 850.03 2694.28 850.734 2694.64 846.611 2695 847.409 2695.36 850.856 2695.72 849.221 2696.08 847.354 2696.43 848.159 2696.79 850.855 2697.15 848.658 2697.51 849.664 2697.87 844.185 2698.23 848.258 2698.59 850.606 2698.95 850.479 2699.31 849.532 2699.67 851.429 2700.03 851.051 2700.39 848.087 2700.75 853.147 2701.11 850.183 2701.47 846.962 2701.83 843.64 2702.18 846.787 2702.54 849.812 2702.9 847.965 2703.26 851.076 2703.62 848.226 2703.98 846.627 2704.34 846.812 2704.7 848.568 2705.06 848.154 2705.42 848.075 2705.78 846.154 2706.14 848.346 2706.5 844.622 2706.86 846.336 2707.22 846.531 2707.58 844.496 2707.93 847.117 2708.29 847.492 2708.65 846.296 2709.01 845.881 2709.37 847.086 2709.73 848.662 2710.09 848.736 2710.45 846.133 2710.81 844.865 2711.17 851.141 2711.53 849.936 2711.89 847.425 2712.25 843.717 2712.61 847.662 2712.97 847.255 2713.33 842.805 2713.68 848.676 2714.04 849.094 2714.4 848.795 2714.76 844.347 2715.12 847.036 2715.48 840.57 2715.84 846.144 2716.2 847.808 2716.56 844.943 2716.92 843.841 2717.28 845.536 2717.64 846.384 2718 845.99 2718.36 846.953 2718.72 848.233 2719.08 849.907 2719.44 847.04 2719.79 849.074 2720.15 847.898 2720.51 843.897 2720.87 846.678 2721.23 847.353 2721.59 846.266 2721.95 844.775 2722.31 844.205 2722.67 848.922 2723.03 850.946 2723.39 846.973 2723.75 848.399 2724.11 848.691 2724.47 850.565 2724.83 850.734 2725.19 852.631 2725.54 849.575 2725.9 851.353 2726.26 850.191 2726.62 844.999 2726.98 848.179 2727.34 850.286 2727.7 849.217 2728.06 847.87 2728.42 849.379 2728.78 849.685 2729.14 850.802 2729.5 848.527 2729.86 850.191 2730.22 848.255 2730.58 844.039 2730.94 846.019 2731.29 852.395 2731.65 849.756 2732.01 850.262 2732.37 849.155 2732.73 849.724 2733.09 847.62 2733.45 849.391 2733.81 848.929 2734.17 843.055 2734.53 847.862 2734.89 848.289 2735.25 845.654 2735.61 843.513 2735.97 846.777 2736.33 842.224 2736.69 847.986 2737.04 846.037 2737.4 848.69 2737.76 849.348 2738.12 850.615 2738.48 849.283 2738.84 850.751 2739.2 846.436 2739.56 844.974 2739.92 848.497 2740.28 848.355 2740.64 852.006 2741 849.854 2741.36 847.426 2741.72 843.864 2742.08 845.693 2742.44 847.886 2742.79 849.872 2743.15 848.376 2743.51 849.351 2743.87 843.467 2744.23 842.025 2744.59 845.615 2744.95 846.6 2745.31 843.074 2745.67 845.798 2746.03 849.386 2746.39 844.491 2746.75 846.712 2747.11 844.897 2747.47 846.601 2747.83 846.826 2748.19 845.336 2748.54 845.536 2748.9 845.271 2749.26 847.597 2749.62 846.34 2749.98 848.731 2750.34 845.297 2750.7 848.122 2751.06 847.549 2751.42 849.221 2751.78 850.714 2752.14 846.341 2752.5 850.025 2752.86 849.711 2753.22 848.88 2753.58 850.338 2753.94 846.786 2754.29 847.432 2754.65 850.786 2755.01 850.701 2755.37 840.99 2755.73 850.448 2756.09 850.138 2756.45 849.301 2756.81 850.286 2757.17 850.055 2757.53 849.757 2757.89 850.068 2758.25 850.858 2758.61 849.082 2758.97 845.337 2759.33 847.677 2759.69 846.023 2760.05 848.996 2760.4 848.17 2760.76 849.013 2761.12 848.479 2761.48 849.21 2761.84 849.124 2762.2 851.414 2762.56 845.524 2762.92 846.422 2763.28 848.588 2763.64 847.381 2764 847.251 2764.36 844.844 2764.72 849.793 2765.08 847.104 2765.44 848.875 2765.8 847.653 2766.15 848.752 2766.51 848.474 2766.87 846.994 2767.23 845.132 2767.59 850.802 2767.95 847.033 2768.31 844.058 2768.67 847.703 2769.03 849.07 2769.39 850.594 2769.75 848.574 2770.11 847.384 2770.47 845.822 2770.83 843.434 2771.19 844.539 2771.55 848.474 2771.9 848.422 2772.26 844.224 2772.62 846.881 2772.98 846.94 2773.34 848.718 2773.7 840.438 2774.06 844.727 2774.42 844.892 2774.78 848.83 2775.14 848.057 2775.5 846.561 2775.86 846.047 2776.22 846.668 2776.58 850.639 2776.94 848.972 2777.3 838.833 2777.65 833.035 2778.01 844.086 2778.37 845.111 2778.73 851.045 2779.09 850.665 2779.45 849.925 2779.81 850.925 2780.17 845.062 2780.53 849.22 2780.89 847.462 2781.25 845.014 2781.61 849.619 2781.97 848.087 2782.33 848.899 2782.69 849.33 2783.05 848.442 2783.4 851.913 2783.76 850.691 2784.12 843.591 2784.48 848.271 2784.84 849.729 2785.2 850.882 2785.56 850.951 2785.92 850.299 2786.28 849.325 2786.64 850.71 2787 849.785 2787.36 850.838 2787.72 849.278 2788.08 845.888 2788.44 847.477 2788.8 847.791 2789.15 849.605 2789.51 847.183 2789.87 847.553 2790.23 847.67 2790.59 848.793 2790.95 849.951 2791.31 844.603 2791.67 846.676 2792.03 850.056 2792.39 847.763 2792.75 847.529 2793.11 852.066 2793.47 849.863 2793.83 848.859 2794.19 849.44 2794.55 849.178 2794.9 849.723 2795.26 848.367 2795.62 842.286 2795.98 849.218 2796.34 849.371 2796.7 846.235 2797.06 849.449 2797.42 849.056 2797.78 847.819 2798.14 849.286 2798.5 846.406 2798.86 846.557 2799.22 847.696 2799.58 844.578 2799.94 847.179 2800.3 849.432 2800.65 846.839 2801.01 846.93 2801.37 841.3 2801.73 842.432 2802.09 845.668 2802.45 847.049 2802.81 844.591 2803.17 845.751 2803.53 845.305 2803.89 848.059 2804.25 849.026 2804.61 850.109 2804.97 847.075 2805.33 848.866 2805.69 850.111 2806.05 838.068 2806.41 830.009 2806.76 846.787 2807.12 847.38 2807.48 846.966 2807.84 848.614 2808.2 846.603 2808.56 850.649 2808.92 845.976 2809.28 843.308 2809.64 845.078 2810 843.422 2810.36 848.785 2810.72 849.509 2811.08 847.335 2811.44 848.72 2811.8 849.14 2812.16 849.046 2812.51 850.055 2812.87 840.766 2813.23 849.192 2813.59 848.854 2813.95 849.305 2814.31 849.346 2814.67 848.005 2815.03 850.382 2815.39 848.569 2815.75 850.298 2816.11 847.459 2816.47 850.235 2816.83 847.374 2817.19 849.628 2817.55 848.267 2817.91 842.397 2818.26 842.417 2818.62 846.824 2818.98 851.031 2819.34 848.602 2819.7 848.91 2820.06 847.112 2820.42 845.825 2820.78 847.496 2821.14 847.784 2821.5 845.194 2821.86 850.313 2822.22 848.029 2822.58 848.082 2822.94 850.52 2823.3 850.198 2823.66 851.432 2824.01 851.095 2824.37 841.889 2824.73 849.049 2825.09 847.518 2825.45 849.023 2825.81 851.665 2826.17 849.415 2826.53 851.049 2826.89 851.358 2827.25 852.152 2827.61 847.803 2827.97 845.811 2828.33 848.548 2828.69 849.974 2829.05 850.47 2829.41 849.947 2829.76 847.443 2830.12 845.082 2830.48 837.236 2830.84 847.865 2831.2 849.636 2831.56 845.43 2831.92 843.016 2832.28 843.336 2832.64 849.309 2833 846.579 2833.36 846.084 2833.72 847.556 2834.08 850.752 2834.44 846.979 2834.8 844.775 2835.16 831.289 2835.51 846.588 2835.87 843.526 2836.23 849.58 2836.59 848.282 2836.95 848.28 2837.31 850.287 2837.67 847.205 2838.03 849.164 2838.39 844.512 2838.75 841.768 2839.11 850.062 2839.47 850.2 2839.83 848.739 2840.19 849.193 2840.55 848.21 2840.91 846.859 2841.26 847.891 2841.62 835.578 2841.98 849.56 2842.34 849.406 2842.7 849.801 2843.06 848.557 2843.42 848.362 2843.78 849.809 2844.14 847.765 2844.5 849.055 2844.86 848.038 2845.22 842.33 2845.58 844.534 2845.94 846.76 2846.3 845.914 2846.66 843.43 2847.02 842.426 2847.37 846.973 2847.73 848.277 2848.09 849.888 2848.45 849.257 2848.81 842.703 2849.17 848.66 2849.53 848.092 2849.89 846.205 2850.25 846.843 2850.61 847.358 2850.97 849.509 2851.33 847.237 2851.69 846.017 2852.05 849.516 2852.41 849.908 2852.77 848.457 2853.12 839.008 2853.48 847.737 2853.84 846.754 2854.2 847.297 2854.56 849.776 2854.92 850.583 2855.28 849.282 2855.64 849.494 2856 848.177 2856.36 849.578 2856.72 849.504 2857.08 849.339 2857.44 849.984 2857.8 851.091 2858.16 850.532 2858.52 848.38 2858.87 848.333 2859.23 844.349 2859.59 848.406 2859.95 847.938 2860.31 847.153 2860.67 837.484 2861.03 843.191 2861.39 848.927 2861.75 845.681 2862.11 838.833 2862.47 844.675 2862.83 850.373 2863.19 849.831 2863.55 845.939 2863.91 838.015 2864.27 848.373 2864.62 838.484 2864.98 848.587 2865.34 845.817 2865.7 847.498 2866.06 848.598 2866.42 842.605 2866.78 847.999 2867.14 848.445 2867.5 847.341 2867.86 849.471 2868.22 847.284 2868.58 849.614 2868.94 847.592 2869.3 849.432 2869.66 848.001 2870.02 849.923 2870.37 840.343 2870.73 846.772 2871.09 847.914 2871.45 848.338 2871.81 848.061 2872.17 844.561 2872.53 850.173 2872.89 846.119 2873.25 846.276 2873.61 848.732 2873.97 842.849 2874.33 844.087 2874.69 843.077 2875.05 845.196 2875.41 847.773 2875.77 846.807 2876.12 845.466 2876.48 848.811 2876.84 846.33 2877.2 850.251 2877.56 842.145 2877.92 846.753 2878.28 843.795 2878.64 847.636 2879 844.88 2879.36 842.966 2879.72 838.848 2880.08 841.071 2880.44 845.566 2880.8 848.589 2881.16 848.117 2881.52 848.944 2881.87 843.867 2882.23 844.135 2882.59 843.145 2882.95 846.292 2883.31 849.093 2883.67 847.214 2884.03 849.708 2884.39 848.717 2884.75 849.259 2885.11 848.425 2885.47 846.278 2885.83 848.504 2886.19 851.155 2886.55 850.391 2886.91 850.746 2887.27 843.888 2887.62 849.79 2887.98 843.913 2888.34 849.139 2888.7 852.073 2889.06 850.011 2889.42 830.472 2889.78 850.809 2890.14 850.209 2890.5 845.289 2890.86 844.321 2891.22 847.588 2891.58 846.232 2891.94 848.589 2892.3 844.56 2892.66 831.283 2893.02 846.598 2893.38 835.934 2893.73 849.055 2894.09 846.775 2894.45 847.595 2894.81 850.069 2895.17 846.131 2895.53 847.986 2895.89 843.896 2896.25 844.826 2896.61 847.551 2896.97 850.144 2897.33 849.578 2897.69 848.886 2898.05 849.49 2898.41 844.875 2898.77 847.714 2899.12 841.397 2899.48 848.973 2899.84 850.668 2900.2 848.291 2900.56 845.787 2900.92 840.063 2901.28 845.718 2901.64 848.597 2902 845.041 2902.36 846.926 2902.72 847.624 2903.08 844.79 2903.44 845.188 2903.8 841.923 2904.16 846.886 2904.52 844.207 2904.88 842.8 2905.23 847.126 2905.59 845.043 2905.95 850.028 2906.31 836.251 2906.67 843.051 2907.03 843.923 2907.39 846.578 2907.75 844.66 2908.11 842.172 2908.47 838.064 2908.83 845.512 2909.19 847.218 2909.55 850.901 2909.91 848.06 2910.27 848.157 2910.63 839.7 2910.98 847.666 2911.34 848.102 2911.7 848.937 2912.06 847.426 2912.42 846.66 2912.78 851.356 2913.14 850.626 2913.5 846.852 2913.86 846.746 2914.22 848.088 2914.58 848.984 2914.94 848.732 2915.3 850.632 2915.66 850.904 2916.02 841.488 2916.38 835.747 2916.73 840.076 2917.09 837.568 2917.45 847.64 2917.81 847.805 2918.17 836.529 2918.53 844.076 2918.89 848.17 2919.25 841.639 2919.61 846.11 2919.97 848.183 2920.33 847.659 2920.69 843.752 2921.05 844.971 2921.41 831.247 2921.77 845.876 2922.13 841.813 2922.48 846.342 2922.84 849.088 2923.2 849.291 2923.56 851.636 2923.92 847.59 2924.28 850.739 2924.64 848.243 2925 843.333 2925.36 849.361 2925.72 850.091 2926.08 848.393 2926.44 849.986 2926.8 850.413 2927.16 850.671 2927.52 847.643 2927.88 843.997 2928.24 849.256 2928.59 849.738 2928.95 850.15 2929.31 845.609 2929.67 840.64 2930.03 842.976 2930.39 846.313 2930.75 849.737 2931.11 848.11 2931.47 845.82 2931.83 842.116 2932.19 841.279 2932.55 838.52 2932.91 845.878 2933.27 834.495 2933.63 843.059 2933.99 847.636 2934.34 840.816 2934.7 848.636 2935.06 825.02 2935.42 843.664 2935.78 844.193 2936.14 843.102 2936.5 849.235 2936.86 846.191 2937.22 845.543 2937.58 845.538 2937.94 847.127 2938.3 846.082 2938.66 847.907 2939.02 848.726 2939.38 837.345 2939.74 846.313 2940.09 849.899 2940.45 847.431 2940.81 846.155 2941.17 847.455 2941.53 847.997 2941.89 847.7 2942.25 846.272 2942.61 849.162 2942.97 850.142 2943.33 849.58 2943.69 849.416 2944.05 849.963 2944.41 849.39 2944.77 847.432 2945.13 848.095 2945.49 847.975 2945.84 849.313 2946.2 845.791 2946.56 849.224 2946.92 851.167 2947.28 850.207 2947.64 846.045 2948 847.62 2948.36 846.647 2948.72 847.005 2949.08 843.331 2949.44 844.737 2949.8 842.22 2950.16 837.422 2950.52 846.553 2950.88 840.624 2951.24 849.572 2951.59 848.624 2951.95 847.399 2952.31 848.768 2952.67 846.94 2953.03 848.125 2953.39 849.155 2953.75 844.83 2954.11 848.591 2954.47 847.504 2954.83 849.881 2955.19 849.319 2955.55 851.389 2955.91 846.938 2956.27 851.002 2956.63 843.412 2956.99 847.723 2957.34 850.81 2957.7 848.599 2958.06 848.213 2958.42 847.704 2958.78 846.389 2959.14 846.892 2959.5 847.444 2959.86 849.008 2960.22 846.629 2960.58 841.198 2960.94 844.324 2961.3 834.689 2961.66 837.432 2962.02 831.123 2962.38 842.749 2962.74 845.058 2963.09 846.616 2963.45 848.45 2963.81 834.596 2964.17 848.033 2964.53 847.808 2964.89 850.753 2965.25 849.022 2965.61 849.323 2965.97 849.824 2966.33 850.69 2966.69 845.954 2967.05 845.513 2967.41 843.267 2967.77 846.172 2968.13 827.958 2968.49 848.943 2968.84 849.813 2969.2 849.431 2969.56 848.783 2969.92 846.232 2970.28 843.769 2970.64 846.743 2971 848.994 2971.36 848.256 2971.72 849.262 2972.08 850.202 2972.44 850.176 2972.8 851.477 2973.16 851.452 2973.52 842.82 2973.88 844.811 2974.24 848.863 2974.59 849.698 2974.95 848.762 2975.31 850.639 2975.67 851.109 2976.03 850.424 2976.39 847.204 2976.75 840.726 2977.11 840.187 2977.47 839.142 2977.83 847.677 2978.19 847.185 2978.55 846.907 2978.91 839.356 2979.27 845.522 2979.63 843.801 2979.99 850.84 2980.34 850.652 2980.7 847.222 2981.06 848.186 2981.42 846.458 2981.78 849.237 2982.14 849.561 2982.5 847.119 2982.86 849.069 2983.22 848.826 2983.58 850.691 2983.94 849.012 2984.3 847.876 2984.66 845.776 2985.02 847.699 2985.38 848.273 2985.74 850.87 2986.09 848.511 2986.45 847.719 2986.81 848.743 2987.17 849.781 2987.53 848.043 2987.89 846.726 2988.25 847.309 2988.61 848.128 2988.97 848.922 2989.33 849.69 2989.69 851.034 2990.05 847.03 2990.41 849.324 2990.77 850.446 2991.13 844.846 2991.49 846.982 2991.85 843.317 2992.2 847.618 2992.56 836.368 2992.92 849.56 2993.28 850.545 2993.64 849.188 2994 849.584 2994.36 849.117 2994.72 849.595 2995.08 850.352 2995.44 847.586 2995.8 845.042 2996.16 844.714 2996.52 843.904 2996.88 841.038 2997.24 851.045 2997.6 850.056 2997.95 851.735 2998.31 850.979 2998.67 850.642 2999.03 847.334 2999.39 849.758 2999.75 849.888 3000.11 850.388 3000.47 850.508 3000.83 849.378 3001.19 848.778 3001.55 849.642 3001.91 850.709 3002.27 847.624 3002.63 844.473 3002.99 846.605 3003.35 849.393 3003.7 848.72 3004.06 846.55 3004.42 844.603 3004.78 850.09 3005.14 841.345 3005.5 838.386 3005.86 849.946 3006.22 845.703 3006.58 844.452 3006.94 845.948 3007.3 848.727 3007.66 837.363 3008.02 845.539 3008.38 846.772 3008.74 847.941 3009.1 847.704 3009.45 845.679 3009.81 847.791 3010.17 848.559 3010.53 849.187 3010.89 847.258 3011.25 849.467 3011.61 848.016 3011.97 850.157 3012.33 846.652 3012.69 850.93 3013.05 848.615 3013.41 849.844 3013.77 847.88 3014.13 849.667 3014.49 848.529 3014.85 850.419 3015.21 849.478 3015.56 847.298 3015.92 850.131 3016.28 849.782 3016.64 848.37 3017 849.378 3017.36 847.365 3017.72 849.89 3018.08 850.551 3018.44 848.458 3018.8 848.519 3019.16 849.619 3019.52 849.391 3019.88 847.073 3020.24 846.991 3020.6 841.644 3020.96 850.723 3021.31 833.534 3021.67 849.534 3022.03 850.121 3022.39 849.247 3022.75 850.237 3023.11 850.608 3023.47 852.787 3023.83 851.303 3024.19 848.243 3024.55 847.262 3024.91 844.936 3025.27 846.584 3025.63 837.799 3025.99 850.106 3026.35 850.821 3026.71 850.891 3027.06 849.946 3027.42 849.423 3027.78 849.572 3028.14 850.235 3028.5 850.527 3028.86 850.811 3029.22 848.312 3029.58 851.94 3029.94 851.266 3030.3 849.319 3030.66 851.191 3031.02 844.974 3031.38 845.163 3031.74 850.271 3032.1 847.389 3032.46 850.178 3032.81 847.947 3033.17 848.433 3033.53 846.399 3033.89 845.225 3034.25 848.09 3034.61 845.876 3034.97 846.092 3035.33 846.923 3035.69 850.095 3036.05 847.955 3036.41 839.009 3036.77 844.891 3037.13 843.974 3037.49 849.906 3037.85 849.351 3038.21 846.603 3038.56 848.274 3038.92 847.678 3039.28 849.95 3039.64 847.26 3040 846.409 3040.36 848.257 3040.72 848.235 3041.08 847.825 3041.44 847.945 3041.8 847.866 3042.16 843.196 3042.52 847.488 3042.88 847.496 3043.24 848.664 3043.6 848.142 3043.96 850.539 3044.31 848.743 3044.67 850.159 3045.03 850.359 3045.39 848.371 3045.75 848.983 3046.11 848.75 3046.47 849.258 3046.83 851.213 3047.19 849.041 3047.55 850.325 3047.91 848.964 3048.27 849.88 3048.63 848.718 3048.99 845.228 3049.35 845.108 3049.71 849.736 3050.06 834.72 3050.42 851.805 3050.78 849.703 3051.14 849.131 3051.5 848.47 3051.86 849.524 3052.22 849.932 3052.58 849.846 3052.94 848.794 3053.3 848.555 3053.66 846.359 3054.02 838.351 3054.38 838.874 3054.74 842.302 3055.1 843.828 3055.46 842.246 3055.81 846.544 3056.17 844.112 3056.53 846.006 3056.89 842.26 3057.25 847.737 3057.61 847.848 3057.97 846.184 3058.33 847.197 3058.69 847.275 3059.05 847.755 3059.41 849.075 3059.77 852.666 3060.13 850.308 3060.49 848.143 3060.85 847.801 3061.21 846.181 3061.56 846.259 3061.92 848.273 3062.28 846.209 3062.64 850.57 3063 848.514 3063.36 850.719 3063.72 850.396 3064.08 848.43 3064.44 847.712 3064.8 848.494 3065.16 842.002 3065.52 841.844 3065.88 843.867 3066.24 848.017 3066.6 849.202 3066.96 848.309 3067.31 849.247 3067.67 849.549 3068.03 848.762 3068.39 849.734 3068.75 847.692 3069.11 848.979 3069.47 848.75 3069.83 849.136 3070.19 848.965 3070.55 851.077 3070.91 846.551 3071.27 847.518 3071.63 847.371 3071.99 850.034 3072.35 849.348 3072.71 850.092 3073.07 848.725 3073.42 848.894 3073.78 850.178 3074.14 848.483 3074.5 847.175 3074.86 847.854 3075.22 848.735 3075.58 849.702 3075.94 849.791 3076.3 849.916 3076.66 848.635 3077.02 849.683 3077.38 848.508 3077.74 847.009 3078.1 846.119 3078.46 848.532 3078.82 835.745 3079.17 848.496 3079.53 848.04 3079.89 846.978 3080.25 849.965 3080.61 849.882 3080.97 849.7 3081.33 849.299 3081.69 848.323 3082.05 845.563 3082.41 849.125 3082.77 839.918 3083.13 845.51 3083.49 849.667 3083.85 847.408 3084.21 846.872 3084.57 848.975 3084.92 847.799 3085.28 843.218 3085.64 838.651 3086 838.908 3086.36 841.416 3086.72 839.106 3087.08 840.742 3087.44 837.705 3087.8 845.21 3088.16 842.204 3088.52 846.322 3088.88 848.193 3089.24 844.219 3089.6 845.877 3089.96 844.598 3090.32 847.191 3090.67 849.64 3091.03 848.825 3091.39 848.157 3091.75 848.299 3092.11 847.376 3092.47 849.695 3092.83 847.772 3093.19 848.389 3093.55 848.759 3093.91 842.909 3094.27 844.205 3094.63 847.289 3094.99 849.774 3095.35 848.161 3095.71 850.532 3096.07 847.95 3096.42 848.606 3096.78 848.439 3097.14 848.327 3097.5 846.327 3097.86 850.464 3098.22 849.645 3098.58 847.816 3098.94 847.027 3099.3 851.352 3099.66 846.576 3100.02 848.276 3100.38 850.108 3100.74 851.315 3101.1 849.63 3101.46 850.584 3101.82 851.086 3102.18 850.309 3102.53 850.251 3102.89 848.2 3103.25 846.2 3103.61 847.806 3103.97 848.096 3104.33 850.059 3104.69 849.063 3105.05 850.735 3105.41 847.686 3105.77 850.425 3106.13 849.408 3106.49 846.786 3106.85 847.33 3107.21 848.908 3107.57 844.874 3107.93 850.505 3108.28 848.788 3108.64 848.074 3109 847.275 3109.36 847.281 3109.72 848.655 3110.08 849.226 3110.44 847.272 3110.8 845.162 3111.16 847.001 3111.52 836.313 3111.88 847.241 3112.24 848.163 3112.6 849.781 3112.96 851.692 3113.32 850.86 3113.68 851.242 3114.03 847.767 3114.39 849.862 3114.75 846.118 3115.11 847.06 3115.47 846.18 3115.83 848.427 3116.19 846.183 3116.55 847.271 3116.91 841.857 3117.27 845.136 3117.63 845.22 3117.99 845.795 3118.35 849.139 3118.71 845.206 3119.07 846.278 3119.43 846.767 3119.78 848.909 3120.14 848.353 3120.5 846.091 3120.86 849.208 3121.22 847.195 3121.58 848.013 3121.94 848.08 3122.3 848.748 3122.66 848.431 3123.02 841.755 3123.38 842.72 3123.74 847.697 3124.1 852.366 3124.46 848.579 3124.82 845.99 3125.18 845.693 3125.53 844.822 3125.89 848.868 3126.25 848.716 3126.61 850.098 3126.97 849.038 3127.33 849.4 3127.69 847.874 3128.05 849.885 3128.41 847.943 3128.77 848.092 3129.13 845.129 3129.49 850.825 3129.85 846.415 3130.21 849.479 3130.57 850.296 3130.93 850.111 3131.28 850.208 3131.64 850.092 3132 848.277 3132.36 846.379 3132.72 849.119 3133.08 851.016 3133.44 850.42 3133.8 848.988 3134.16 849.396 3134.52 848.922 3134.88 849.665 3135.24 845.897 3135.6 844.928 3135.96 848.587 3136.32 841.842 3136.68 849.415 3137.03 850.322 3137.39 849.144 3137.75 847.989 3138.11 849.694 3138.47 848.046 3138.83 849.389 3139.19 846.988 3139.55 843.486 3139.91 851.215 3140.27 830.185 3140.63 846.978 3140.99 849.076 3141.35 848.696 3141.71 849.375 3142.07 850.592 3142.43 849.38 3142.78 848.016 3143.14 848.546 3143.5 849.937 3143.86 849.704 3144.22 847.907 3144.58 847.516 3144.94 849.74 3145.3 848.672 3145.66 846.983 3146.02 847.539 3146.38 849.16 3146.74 847.012 3147.1 845.093 3147.46 849.576 3147.82 847.454 3148.18 844.589 3148.53 849.708 3148.89 850.806 3149.25 850.091 3149.61 847.663 3149.97 847.556 3150.33 849.799 3150.69 850.805 3151.05 848.022 3151.41 845.316 3151.77 840.442 3152.13 847.438 3152.49 848.498 3152.85 846.64 3153.21 847.301 3153.57 846.143 3153.93 849.849 3154.28 846.449 3154.64 849.582 3155 846.431 3155.36 847.849 3155.72 844.679 3156.08 845.191 3156.44 848.593 3156.8 846.057 3157.16 849.002 3157.52 848.291 3157.88 843.492 3158.24 847.88 3158.6 845.49 3158.96 847.582 3159.32 846.638 3159.68 845.124 3160.04 850.07 3160.39 847.984 3160.75 847.538 3161.11 847.26 3161.47 848.379 3161.83 850.407 3162.19 847.889 3162.55 848.439 3162.91 849.441 3163.27 848.103 3163.63 848.228 3163.99 847.341 3164.35 846.277 3164.71 848.443 3165.07 845.926 3165.43 848.181 3165.79 849.039 3166.14 848.772 3166.5 848.309 3166.86 846.656 3167.22 848.886 3167.58 848.607 3167.94 847.706 3168.3 848.294 3168.66 848.902 3169.02 829.668 3169.38 850.753 3169.74 848.959 3170.1 848.58 3170.46 849.748 3170.82 848.806 3171.18 848.577 3171.54 847.617 3171.89 849.374 3172.25 847.742 3172.61 847.948 3172.97 846.837 3173.33 848.86 3173.69 851.242 3174.05 851.484 3174.41 849.603 3174.77 851.449 3175.13 848.292 3175.49 848.096 3175.85 845.337 3176.21 849.794 3176.57 846.339 3176.93 848.239 3177.29 847.576 3177.64 849.18 3178 848.235 3178.36 848.9 3178.72 848.586 3179.08 846.809 3179.44 848.125 3179.8 846.595 3180.16 842.409 3180.52 842.776 3180.88 848.552 3181.24 849.286 3181.6 849.017 3181.96 850.198 3182.32 848.513 3182.68 846.55 3183.04 844.33 3183.4 848.489 3183.75 845.681 3184.11 847.493 3184.47 844.804 3184.83 847.849 3185.19 849.55 3185.55 844.767 3185.91 848.667 3186.27 849.392 3186.63 847.388 3186.99 848.471 3187.35 846.898 3187.71 847.983 3188.07 846.05 3188.43 848.018 3188.79 844.173 3189.15 849.181 3189.5 848.343 3189.86 847.334 3190.22 847.087 3190.58 847.721 3190.94 847.55 3191.3 848.789 3191.66 849.628 3192.02 848.63 3192.38 847.668 3192.74 845.569 3193.1 847.262 3193.46 848.394 3193.82 845.265 3194.18 849.675 3194.54 849.546 3194.9 849.607 3195.25 850.643 3195.61 849.445 3195.97 849.866 3196.33 851.42 3196.69 848.439 3197.05 846.121 3197.41 848.386 3197.77 840.656 3198.13 848.923 3198.49 849.631 3198.85 849.359 3199.21 848.352 3199.57 848.14 3199.93 847.415 3200.29 850.043 3200.65 846.274 3201 848.437 3201.36 849.137 3201.72 850.376 3202.08 852.901 3202.44 849.742 3202.8 849.464 3203.16 848.916 3203.52 846.24 3203.88 845.812 3204.24 847.377 3204.6 846.155 3204.96 847.212 3205.32 852.515 3205.68 847.63 3206.04 847.153 3206.4 846.886 3206.75 847.684 3207.11 847.525 3207.47 844.65 3207.83 848.197 3208.19 847.722 3208.55 845.914 3208.91 843.533 3209.27 843.845 3209.63 846.566 3209.99 848.092 3210.35 851.594 3210.71 847.813 3211.07 847.321 3211.43 847.129 3211.79 841.749 3212.15 849.122 3212.5 848.464 3212.86 847.443 3213.22 845.532 3213.58 849.44 3213.94 847.243 3214.3 846.755 3214.66 847.093 3215.02 849.93 3215.38 846.786 3215.74 847.87 3216.1 845.819 3216.46 849.018 3216.82 845.821 3217.18 843.36 3217.54 845.551 3217.9 850.182 3218.25 849.219 3218.61 846.252 3218.97 846.342 3219.33 849.999 3219.69 849.886 3220.05 846.245 3220.41 848.083 3220.77 844.287 3221.13 845.026 3221.49 846.068 3221.85 846.364 3222.21 846.51 3222.57 846.467 3222.93 847.433 3223.29 848.094 3223.65 848.864 3224 848.405 3224.36 849.511 3224.72 850.741 3225.08 851.839 3225.44 847.477 3225.8 844.973 3226.16 847.545 3226.52 839.852 3226.88 850.06 3227.24 848.631 3227.6 849.623 3227.96 847.951 3228.32 848.14 3228.68 847.719 3229.04 848.655 3229.4 848.9 3229.75 847.637 3230.11 848.361 3230.47 847.927 3230.83 850.052 3231.19 851.422 3231.55 850.989 3231.91 850.55 3232.27 848.348 3232.63 846.306 3232.99 848.034 3233.35 847.268 3233.71 848.198 3234.07 848.712 3234.43 847.495 3234.79 847.367 3235.15 849.046 3235.5 846.408 3235.86 845.625 3236.22 843.91 3236.58 845.625 3236.94 846.441 3237.3 846.358 3237.66 845.253 3238.02 848.467 3238.38 847.518 3238.74 846.011 3239.1 847.934 3239.46 848.955 3239.82 844.814 3240.18 845.816 3240.54 847.197 3240.9 844.672 3241.25 847.474 3241.61 849.276 3241.97 846.741 3242.33 846.184 3242.69 847.07 3243.05 847.193 3243.41 846.921 3243.77 847.945 3244.13 846.027 3244.49 849.229 3244.85 844.565 3245.21 843.493 3245.57 845.906 3245.93 840.126 3246.29 842.251 3246.65 850.395 3247.01 847.323 3247.36 849.04 3247.72 847.144 3248.08 848.424 3248.44 851.257 3248.8 851.576 3249.16 850.308 3249.52 847.823 3249.88 847.791 3250.24 846.536 3250.6 846.281 3250.96 846.861 3251.32 847.177 3251.68 849.347 3252.04 849 3252.4 848.297 3252.76 849.877 3253.11 847.362 3253.47 848.544 3253.83 848.19 3254.19 844.586 3254.55 844.733 3254.91 847.578 3255.27 847.236 3255.63 848.088 3255.99 849.859 3256.35 849.678 3256.71 848.638 3257.07 846.82 3257.43 851.634 3257.79 850.423 3258.15 847.453 3258.51 848.505 3258.86 847.736 3259.22 849.286 3259.58 851.879 3259.94 849.023 3260.3 852.473 3260.66 851.15 3261.02 847.195 3261.38 845.847 3261.74 848.117 3262.1 847.052 3262.46 850.28 3262.82 848.461 3263.18 846.027 3263.54 846.163 3263.9 848.817 3264.26 847.249 3264.61 846.073 3264.97 848.516 3265.33 846.523 3265.69 845.028 3266.05 845.214 3266.41 838.597 3266.77 848.325 3267.13 846.911 3267.49 843.574 3267.85 845.486 3268.21 848.456 3268.57 843.991 3268.93 844.15 3269.29 844.835 3269.65 846.339 3270.01 848.814 3270.36 846.914 3270.72 845.276 3271.08 844.078 3271.44 844.929 3271.8 844.626 3272.16 846.075 3272.52 850.075 3272.88 843.634 3273.24 848.59 3273.6 847.511 3273.96 849.244 3274.32 846.021 3274.68 846.001 3275.04 845.563 3275.4 848.338 3275.76 848.698 3276.11 845.276 3276.47 847.416 3276.83 849.092 3277.19 851.237 3277.55 851.014 3277.91 847.814 3278.27 836.487 3278.63 848.692 3278.99 845.133 3279.35 844.548 3279.71 847.41 3280.07 848.727 3280.43 850.582 3280.79 850.578 3281.15 852.153 3281.51 849.159 3281.87 849.794 3282.22 849.968 3282.58 848.481 3282.94 843.587 3283.3 843.996 3283.66 846.772 3284.02 844.761 3284.38 846.721 3284.74 848.293 3285.1 848.302 3285.46 851.162 3285.82 849.384 3286.18 850.149 3286.54 850.414 3286.9 847.39 3287.26 850.661 3287.62 850.265 3287.97 850.26 3288.33 850.416 3288.69 851.53 3289.05 853.147 3289.41 852.482 3289.77 846.713 3290.13 846.304 3290.49 845.665 3290.85 850.108 3291.21 848.143 3291.57 846.518 3291.93 849.273 3292.29 849.28 3292.65 847.834 3293.01 847.24 3293.36 847.217 3293.72 847.421 3294.08 839.608 3294.44 848.034 3294.8 849.302 3295.16 843.245 3295.52 846.75 3295.88 844.386 3296.24 844.117 3296.6 847.018 3296.96 846.802 3297.32 847.077 3297.68 840.534 3298.04 847.59 3298.4 847.004 3298.76 848.761 3299.12 846.869 3299.47 850.545 3299.83 842.973 3300.19 843.14 3300.55 844.111 3300.91 841.273 3301.27 847.558 3301.63 843.995 3301.99 851.016 3302.35 845.342 3302.71 840.979 3303.07 847.984 3303.43 847.202 3303.79 848.531 3304.15 847.902 3304.51 846.429 3304.87 844.324 3305.22 848.831 3305.58 846.81 3305.94 848.438 3306.3 849.673 3306.66 846.535 3307.02 841.484 3307.38 847.087 3307.74 847.324 3308.1 847.635 3308.46 845.384 3308.82 847.793 3309.18 850.074 3309.54 849.741 3309.9 851.143 3310.26 849.004 3310.62 850.373 3310.97 846.341 3311.33 849.751 3311.69 845.675 3312.05 845.632 3312.41 847.578 3312.77 839.78 3313.13 848.812 3313.49 851.739 3313.85 851.142 3314.21 847.799 3314.57 850.293 3314.93 849.916 3315.29 850.415 3315.65 848.677 3316.01 849.964 3316.37 849.432 3316.72 848.591 3317.08 849.565 3317.44 850.98 3317.8 852.945 3318.16 850.116 3318.52 851.748 3318.88 850.142 3319.24 849.358 3319.6 850.841 3319.96 851.082 3320.32 846.924 3320.68 845.486 3321.04 844.054 3321.4 848.728 3321.76 846.205 3322.12 846.379 3322.47 844.984 3322.83 848.362 3323.19 844.957 3323.55 841.423 3323.91 847.919 3324.27 840.848 3324.63 850.281 3324.99 844.011 3325.35 845.76 3325.71 844.189 3326.07 844.457 3326.43 850.897 3326.79 844.808 3327.15 846.713 3327.51 850.142 3327.87 847.999 3328.23 846.742 3328.58 849.302 3328.94 844.568 3329.3 842.556 3329.66 843.502 3330.02 849.697 3330.38 844.562 3330.74 849.502 3331.1 846.353 3331.46 843.905 3331.82 845.804 3332.18 837.499 3332.54 851.004 3332.9 857.502 3333.26 846.381 3333.62 845.22 3333.98 850.669 3334.33 845.621 3334.69 843.752 3335.05 845.655 3335.41 848.653 3335.77 849.493 3336.13 848.59 3336.49 847.148 3336.85 848.778 3337.21 848.836 3337.57 846.727 3337.93 849.079 3338.29 850.268 3338.65 850.962 3339.01 850.8 3339.37 846.954 3339.73 850.932 3340.08 849.18 3340.44 847.946 3340.8 848.74 3341.16 847.173 3341.52 845.267 3341.88 849.253 3342.24 853.105 3342.6 851.869 3342.96 849.842 3343.32 849.462 3343.68 850.322 3344.04 851.658 3344.4 848.621 3344.76 850.434 3345.12 851.535 3345.48 848.826 3345.83 847.597 3346.19 852.604 3346.55 849.428 3346.91 849.331 3347.27 847.576 3347.63 848.056 3347.99 848.821 3348.35 850.134 3348.71 847.759 3349.07 849.384 3349.43 848.127 3349.79 848.156 3350.15 846.844 3350.51 847.781 3350.87 843.102 3351.23 848.099 3351.58 846.065 3351.94 847.818 3352.3 845.763 3352.66 843.681 3353.02 844.669 3353.38 846.826 3353.74 841.731 3354.1 845.172 3354.46 842.998 3354.82 845.992 3355.18 846.58 3355.54 848.167 3355.9 844.536 3356.26 847.594 3356.62 848.912 3356.98 848.107 3357.33 849.281 3357.69 849.225 3358.05 841.823 3358.41 847.195 3358.77 848.043 3359.13 846.9 3359.49 847.088 3359.85 848.703 3360.21 841.525 3360.57 841.574 3360.93 845.713 3361.29 840.019 3361.65 844.58 3362.01 847.607 3362.37 848.964 3362.73 850.107 3363.08 846.337 3363.44 841.565 3363.8 844.05 3364.16 844.369 3364.52 841.391 3364.88 843.851 3365.24 844.797 3365.6 847.995 3365.96 846.756 3366.32 848.248 3366.68 848.291 3367.04 849.242 3367.4 849.632 3367.76 850.418 3368.12 850.673 3368.48 851.387 3368.84 847.478 3369.19 850.339 3369.55 847.486 3369.91 844.436 3370.27 845.461 3370.63 851.298 3370.99 850.047 3371.35 849.62 3371.71 849.937 3372.07 849.991 3372.43 850.641 3372.79 849.348 3373.15 850.635 3373.51 851.564 3373.87 849.689 3374.23 848.867 3374.58 852.786 3374.94 852.272 3375.3 850.016 3375.66 850.574 3376.02 848.448 3376.38 847.921 3376.74 849.558 3377.1 852.097 3377.46 848.407 3377.82 847.637 3378.18 848.158 3378.54 846.365 3378.9 846.695 3379.26 845.453 3379.62 846.583 3379.98 840.593 3380.33 842.815 3380.69 843.92 3381.05 845.285 3381.41 842.857 3381.77 847.542 3382.13 843.588 3382.49 846.753 3382.85 848.214 3383.21 846.591 3383.57 847.455 3383.93 846.772 3384.29 846.987 3384.65 847.949 3385.01 844.052 3385.37 844.798 3385.73 849.89 3386.08 843.525 3386.44 849.421 3386.8 849.072 3387.16 842.401 3387.52 835.536 3387.88 850.196 3388.24 846.8 3388.6 848.333 3388.96 844.143 3389.32 837.505 3389.68 839.638 3390.04 841.325 3390.4 843.939 3390.76 849.184 3391.12 851.931 3391.48 849.027 3391.84 843.82 3392.19 848.018 3392.55 845.441 3392.91 852.937 3393.27 843.507 3393.63 841.03 3393.99 841.656 3394.35 849.426 3394.71 846.086 3395.07 849.01 3395.43 846.599 3395.79 847.556 3396.15 845.929 3396.51 845.515 3396.87 849.098 3397.23 849.864 3397.59 846.997 3397.94 846.394 3398.3 847.436 3398.66 847.262 3399.02 846.264 3399.38 850.748 3399.74 851.149 3400.1 850 3400.46 852.492 3400.82 850.664 3401.18 850.434 3401.54 849.471 3401.9 849.243 3402.26 851.186 3402.62 850.599 3402.98 847.323 3403.34 850.675 3403.69 851.1 3404.05 850.411 3404.41 849.009 3404.77 848.415 3405.13 850.053 3405.49 848.317 3405.85 850.75 3406.21 847.935 3406.57 848.829 3406.93 845.246 3407.29 847.244 3407.65 847.059 3408.01 847.964 3408.37 845.749 3408.73 845.101 3409.09 849.651 3409.44 847.309 3409.8 845.743 3410.16 848.116 3410.52 845.999 3410.88 844.862 3411.24 847.689 3411.6 844.271 3411.96 843.511 3412.32 846.278 3412.68 846.418 3413.04 850.933 3413.4 848.696 3413.76 849.518 3414.12 845.039 3414.48 847.105 3414.84 847.318 3415.2 845.613 3415.55 848.706 3415.91 845.621 3416.27 845.665 3416.63 844.196 3416.99 848.723 3417.35 848.314 3417.71 847.1 3418.07 844.24 3418.43 844.36 3418.79 843.528 3419.15 844.906 3419.51 851.291 3419.87 849.061 3420.23 849.938 3420.59 844.769 3420.95 841.12 3421.3 843.473 3421.66 850.17 3422.02 841.444 3422.38 843.36 3422.74 842.099 3423.1 846.412 3423.46 844.373 3423.82 848.562 3424.18 842.92 3424.54 840.823 3424.9 841.22 3425.26 844.735 3425.62 845.987 3425.98 848.124 3426.34 845.155 3426.7 846.312 3427.05 847.393 3427.41 848.351 3427.77 849.339 3428.13 849.649 3428.49 849.894 3428.85 849.705 3429.21 848.627 3429.57 849.897 3429.93 849.451 3430.29 848.367 3430.65 849.067 3431.01 850.57 3431.37 851.078 3431.73 850.33 3432.09 850.057 3432.45 850.597 3432.8 850.293 3433.16 849.448 3433.52 848.237 3433.88 849.814 3434.24 849.114 3434.6 848.173 3434.96 849.508 3435.32 848.7 3435.68 849.715 3436.04 848.921 3436.4 847.754 3436.76 844.362 3437.12 845.751 3437.48 845.65 3437.84 843.399 3438.2 844.262 3438.55 843.986 3438.91 846.786 3439.27 846.572 3439.63 848.335 3439.99 845.132 3440.35 846.311 3440.71 847.083 3441.07 847.282 3441.43 843.243 3441.79 841.045 3442.15 851.14 3442.51 841.909 3442.87 844.112 3443.23 844.431 3443.59 841.931 3443.95 845.167 3444.3 848.019 3444.66 848.977 3445.02 845.961 3445.38 834.187 3445.74 846.573 3446.1 850.127 3446.46 847.1 3446.82 847.409 3447.18 845.251 3447.54 842.249 3447.9 841.202 3448.26 849.902 3448.62 849.796 3448.98 847.905 3449.34 847.124 3449.7 848.879 3450.06 845.118 3450.41 846.152 3450.77 840.899 3451.13 844.412 3451.49 847.995 3451.85 849.34 3452.21 846.528 3452.57 848.402 3452.93 845.464 3453.29 840.92 3453.65 844.776 3454.01 832.796 3454.37 839.46 3454.73 838.108 3455.09 841.99 3455.45 844.856 3455.8 848.1 3456.16 844.678 3456.52 851.034 3456.88 847.111 3457.24 850.513 3457.6 850.965 3457.96 850.396 3458.32 849.266 3458.68 852.375 3459.04 850.061 3459.4 849.643 3459.76 850.136 3460.12 850.63 3460.48 847.914 3460.84 848.752 3461.2 848.873 3461.55 849.748 3461.91 849.37 3462.27 849.772 3462.63 849.76 3462.99 849.225 3463.35 848.998 3463.71 847.25 3464.07 849.472 3464.43 847.572 3464.79 848.458 3465.15 850.032 3465.51 848.742 3465.87 848.677 3466.23 845.145 3466.59 844.424 3466.95 845.257 3467.3 846.008 3467.66 848.814 3468.02 846.063 3468.38 845.244 3468.74 846.969 3469.1 847.426 3469.46 849.467 3469.82 849.345 3470.18 845.55 3470.54 845.796 3470.9 844.292 3471.26 842.838 3471.62 845.477 3471.98 844.724 3472.34 840.675 3472.7 843.713 3473.06 837.579 3473.41 846.813 3473.77 846.335 3474.13 844.434 3474.49 843.859 3474.85 848.437 3475.21 847.319 3475.57 849.765 3475.93 843.181 3476.29 843.838 3476.65 840.93 3477.01 846.678 3477.37 850.541 3477.73 850.055 3478.09 847.501 3478.45 846.82 3478.81 842.092 3479.16 837.049 3479.52 841.054 3479.88 847.361 3480.24 851.51 3480.6 848.782 3480.96 852.226 3481.32 850.482 3481.68 849.058 3482.04 845.859 3482.4 846.622 3482.76 845.275 3483.12 836.8 3483.48 835.538 3483.84 844.393 3484.2 844.974 3484.56 849.982 3484.91 846.682 3485.27 849.487 3485.63 849.865 3485.99 845.567 3486.35 848.625 3486.71 851.118 3487.07 848.576 3487.43 849.1 3487.79 850.115 3488.15 850.464 3488.51 851.903 3488.87 849.723 3489.23 847.754 3489.59 849.934 3489.95 849.203 3490.31 849.993 3490.66 851.335 3491.02 850.144 3491.38 846.656 3491.74 847.665 3492.1 846.408 3492.46 848.496 3492.82 847.077 3493.18 845.865 3493.54 849.038 3493.9 846.287 3494.26 848.455 3494.62 847.612 3494.98 844.877 3495.34 847.978 3495.7 850.535 3496.06 845.968 3496.42 847.721 3496.77 844.481 3497.13 846.72 3497.49 848.162 3497.85 840.537 3498.21 838.441 3498.57 843.659 3498.93 847.442 3499.29 843.567 3499.65 845.541 3500.01 849.46 3500.37 841.988 3500.73 842.309 3501.09 843.766 3501.45 844.68 3501.81 843.122 3502.17 842.505 3502.52 847.479 3502.88 843.478 3503.24 845.127 3503.6 842.489 3503.96 844.691 3504.32 851.07 3504.68 845.417 3505.04 841.733 3505.4 840.486 3505.76 847.238 3506.12 850.585 3506.48 849.382 3506.84 849.897 3507.2 838.297 3507.56 838.908 3507.92 841.663 3508.27 847.947 3508.63 848.514 3508.99 850.043 3509.35 850.461 3509.71 850.237 3510.07 847.907 3510.43 845.848 3510.79 843.055 3511.15 843.407 3511.51 848.521 3511.87 849.963 3512.23 846.325 3512.59 845.463 3512.95 845.29 3513.31 849.303 3513.67 849.765 3514.02 847.19 3514.38 843.923 3514.74 851.024 3515.1 845.398 3515.46 849.604 3515.82 849.133 3516.18 848.609 3516.54 849.421 3516.9 851.333 3517.26 851.595 3517.62 849.939 3517.98 849.085 3518.34 849.034 3518.7 849.35 3519.06 851.043 3519.42 849.383 3519.77 847.944 3520.13 843.834 3520.49 848.538 3520.85 848.746 3521.21 846.321 3521.57 847.359 3521.93 849.003 3522.29 850.796 3522.65 847.571 3523.01 849.143 3523.37 847.527 3523.73 845.144 3524.09 847.665 3524.45 847.916 3524.81 845.136 3525.17 849.099 3525.52 846.641 3525.88 841.954 3526.24 843.831 3526.6 840.958 3526.96 846.363 3527.32 841.08 3527.68 845.596 3528.04 843.358 3528.4 843.898 3528.76 849.803 3529.12 840.4 3529.48 845.874 3529.84 842.653 3530.2 849.53 3530.56 844.772 3530.92 846.728 3531.27 845.869 3531.63 845.374 3531.99 845.019 3532.35 840.566 3532.71 844.505 3533.07 841.447 3533.43 840.367 3533.79 844.234 3534.15 837.087 3534.51 836.203 3534.87 848.882 3535.23 850.539 3535.59 850.111 3535.95 844.433 3536.31 842.111 3536.67 846.494 3537.02 848.749 3537.38 847.979 3537.74 850.769 3538.1 848.236 3538.46 841.895 3538.82 837.136 3539.18 848.625 3539.54 849.026 3539.9 851.208 3540.26 850.576 3540.62 848.026 3540.98 849.217 3541.34 849.584 3541.7 849.929 3542.06 848.577 3542.42 850.994 3542.77 851.482 3543.13 848.918 3543.49 850.867 3543.85 847.166 3544.21 850.683 3544.57 850.041 3544.93 850.935 3545.29 848.52 3545.65 850.002 3546.01 850.785 3546.37 849.76 3546.73 849.546 3547.09 850.054 3547.45 849.873 3547.81 849.028 3548.17 849.035 3548.52 849.178 3548.88 846.425 3549.24 846.656 3549.6 848.876 3549.96 849.525 3550.32 849.646 3550.68 851.124 3551.04 851.161 3551.4 851.852 3551.76 849.903 3552.12 850.623 3552.48 846.524 3552.84 847.424 3553.2 847.727 3553.56 846.213 3553.92 848.307 3554.27 849.708 3554.63 846.791 3554.99 844.191 3555.35 847.437 3555.71 847.134 3556.07 845.569 3556.43 842.822 3556.79 839.524 3557.15 845.35 3557.51 833.835 3557.87 842.374 3558.23 843.619 3558.59 842.879 3558.95 843.649 3559.31 840.414 3559.67 848.971 3560.03 845.975 3560.38 847.123 3560.74 847.124 3561.1 848.025 3561.46 851.951 3561.82 849.131 3562.18 849.466 3562.54 846.813 3562.9 845.779 3563.26 849.256 3563.62 846.61 3563.98 849.415 3564.34 848.344 3564.7 849.137 3565.06 849.857 3565.42 849.224 3565.78 847.759 3566.13 850.446 3566.49 851.378 3566.85 847.788 3567.21 834.832 3567.57 842.912 3567.93 850.388 3568.29 850.2 3568.65 850.419 3569.01 845.003 3569.37 849.61 3569.73 849.769 3570.09 851.077 3570.45 849.341 3570.81 852.96 3571.17 849.96 3571.53 850.502 3571.88 849.059 3572.24 848.162 3572.6 841.427 3572.96 847.88 3573.32 847.953 3573.68 849.706 3574.04 848.443 3574.4 850.052 3574.76 850.679 3575.12 845.162 3575.48 850.17 3575.84 849.391 3576.2 851.303 3576.56 849.645 3576.92 848.986 3577.28 850.454 3577.63 847.461 3577.99 847.994 3578.35 848.205 3578.71 848.096 3579.07 848.096 3579.43 847.772 3579.79 847.804 3580.15 847.028 3580.51 844.205 3580.87 844.258 3581.23 847.166 3581.59 846.351 3581.95 846.747 3582.31 847.769 3582.67 848.987 3583.03 851.083 3583.39 848.41 3583.74 847.658 3584.1 847.621 3584.46 845.2 3584.82 845.689 3585.18 847.92 3585.54 846.615 3585.9 841.817 3586.26 844.864 3586.62 840.042 3586.98 844 3587.34 840.29 3587.7 845.072 3588.06 845.965 3588.42 843.196 3588.78 846.611 3589.14 849.541 3589.49 850.751 3589.85 849.923 3590.21 849.427 3590.57 847.323 3590.93 850.22 3591.29 849.164 3591.65 847.639 3592.01 849.79 3592.37 849.598 3592.73 849.853 3593.09 847.543 3593.45 849.76 3593.81 847.908 3594.17 849.061 3594.53 849.526 3594.89 849.59 3595.24 850.359 3595.6 849.319 3595.96 846.538 3596.32 847.651 3596.68 850.367 3597.04 849.076 3597.4 845.066 3597.76 846.464 3598.12 847.55 3598.48 849.046 3598.84 849.069 3599.2 851.269 3599.56 851.33 3599.92 850.238 3600.28 847.848 3600.64 849.302 3600.99 848.241 3601.35 848.657 3601.71 850.697 3602.07 849.583 3602.43 849.996 3602.79 849.446 3603.15 850.179 3603.51 851.299 3603.87 847.874 3604.23 848.683 3604.59 850.679 3604.95 849.171 3605.31 847.749 3605.67 847.428 3606.03 848.621 3606.39 847.723 3606.74 848.473 3607.1 850.343 3607.46 849.937 3607.82 848.188 3608.18 847.385 3608.54 847.641 3608.9 846.915 3609.26 844.294 3609.62 849.703 3609.98 851.145 3610.34 845.624 3610.7 848.095 3611.06 849.321 3611.42 850.498 3611.78 850.292 3612.14 851.289 3612.49 851.539 3612.85 850.717 3613.21 847.401 3613.57 847.314 3613.93 847.795 3614.29 847.936 3614.65 848.92 3615.01 849.644 3615.37 846.383 3615.73 848.788 3616.09 846.42 3616.45 843.983 3616.81 842.892 3617.17 849.586 3617.53 834.661 3617.89 846.748 3618.24 843.965 3618.6 845.49 3618.96 847.916 3619.32 849.763 3619.68 848.521 3620.04 849.286 3620.4 849.036 3620.76 850.457 3621.12 849.792 3621.48 851.073 3621.84 847.863 3622.2 849.611 3622.56 850.191 3622.92 849.436 3623.28 851.619 3623.64 849.411 3623.99 850.286 3624.35 852.098 3624.71 849.237 3625.07 849.878 3625.43 849.896 3625.79 847.75 3626.15 847.203 3626.51 849.862 3626.87 847.821 3627.23 850.177 3627.59 850.781 3627.95 849.976 3628.31 849.039 3628.67 847.404 3629.03 849.168 3629.39 850.008 3629.74 852.464 3630.1 850.521 3630.46 850.321 3630.82 848.759 3631.18 849.387 3631.54 850.12 3631.9 849.644 3632.26 847.278 3632.62 848.037 3632.98 849.158 3633.34 847.933 3633.7 848.122 3634.06 848.081 3634.42 851.491 3634.78 850.894 3635.14 850.692 3635.49 851.671 3635.85 851.098 3636.21 850.292 3636.57 846.419 3636.93 846.609 3637.29 843.199 3637.65 845.292 3638.01 845.229 3638.37 845.906 3638.73 847.877 3639.09 851.666 3639.45 847.886 3639.81 850.467 3640.17 846.957 3640.53 848.328 3640.89 851.209 3641.25 851.152 3641.6 849.435 3641.96 848.118 3642.32 846.856 3642.68 849.814 3643.04 849.818 3643.4 850.099 3643.76 850.077 3644.12 850.22 3644.48 847.709 3644.84 848.523 3645.2 850.228 3645.56 847.789 3645.92 845.211 3646.28 847.869 3646.64 844.586 3647 842.027 3647.35 842.311 3647.71 848.83 3648.07 847.656 3648.43 849.052 3648.79 847.996 3649.15 848.539 3649.51 850.301 3649.87 849.548 3650.23 850.848 3650.59 849.812 3650.95 847.789 3651.31 849.308 3651.67 850.023 3652.03 849.723 3652.39 852.237 3652.75 848.733 3653.1 849.647 3653.46 849.301 3653.82 852.628 3654.18 852.825 3654.54 848.809 3654.9 849.024 3655.26 850.956 3655.62 849.242 3655.98 848.273 3656.34 849.763 3656.7 849.697 3657.06 847.356 3657.42 843.434 3657.78 847.585 3658.14 851.135 3658.5 849.501 3658.85 851.374 3659.21 850.438 3659.57 849.173 3659.93 849.735 3660.29 849.754 3660.65 850.034 3661.01 848.654 3661.37 846.992 3661.73 848.093 3662.09 847.077 3662.45 846.72 3662.81 849.111 3663.17 845.756 3663.53 851.571 3663.89 852.25 3664.25 851.717 3664.6 847.76 3664.96 849.435 3665.32 843.963 3665.68 845.332 3666.04 847.748 3666.4 843.106 3666.76 846.895 3667.12 849.099 3667.48 850.737 3667.84 848.902 3668.2 852.984 3668.56 852.764 3668.92 850.238 3669.28 848.497 3669.64 850.883 3670 848.62 3670.35 848.851 3670.71 848.683 3671.07 847.934 3671.43 850.888 3671.79 848.125 3672.15 850.013 3672.51 850.782 3672.87 849.325 3673.23 849.58 3673.59 849.076 3673.95 847.655 3674.31 846.96 3674.67 847.966 3675.03 849.5 3675.39 848.376 3675.75 847.405 3676.1 845.554 3676.46 844.036 3676.82 839.145 3677.18 845.217 3677.54 849.948 3677.9 848.284 3678.26 850.571 3678.62 849.992 3678.98 846.795 3679.34 849.889 3679.7 849.891 3680.06 850.762 3680.42 849.338 3680.78 849.429 3681.14 850.724 3681.5 849.374 3681.86 851.362 3682.21 849.253 3682.57 849.058 3682.93 850.162 3683.29 850.376 3683.65 850.262 3684.01 850.45 3684.37 849.425 3684.73 850.089 3685.09 849.061 3685.45 850.355 3685.81 851.19 3686.17 849.653 3686.53 851.733 3686.89 850.93 3687.25 850.351 3687.61 849.823 3687.96 849.699 3688.32 850.42 3688.68 851.034 3689.04 849.658 3689.4 849.58 3689.76 848.165 3690.12 846.825 3690.48 849.861 3690.84 852.444 3691.2 847.577 3691.56 847.614 3691.92 847.797 3692.28 845.745 3692.64 846.363 3693 843.936 3693.36 845.473 3693.71 845.463 3694.07 844.574 3694.43 842.629 3694.79 845.695 3695.15 849.957 3695.51 848.232 3695.87 848.017 3696.23 846.982 3696.59 848.291 3696.95 847.837 3697.31 849.259 3697.67 850.992 3698.03 848.084 3698.39 848.047 3698.75 847.725 3699.11 851.452 3699.46 848.138 3699.82 848.279 3700.18 848.739 3700.54 847.552 3700.9 848.916 3701.26 849.84 3701.62 848.991 3701.98 847.669 3702.34 850.343 3702.7 851.75 3703.06 850.688 3703.42 848.984 3703.78 849.803 3704.14 849.797 3704.5 848.174 3704.86 847.389 3705.21 850.329 3705.57 847.672 3705.93 846.727 3706.29 846.075 3706.65 847.399 3707.01 841.637 3707.37 845.251 3707.73 844.507 3708.09 842.774 3708.45 845.399 3708.81 846.825 3709.17 847.77 3709.53 846.286 3709.89 849.656 3710.25 848.818 3710.61 848.941 3710.96 847.731 3711.32 847.727 3711.68 850.39 3712.04 849.718 3712.4 848.988 3712.76 849.687 3713.12 848.87 3713.48 851.048 3713.84 848.629 3714.2 850.678 3714.56 851.286 3714.92 850.038 3715.28 850.163 3715.64 850.369 3716 850.802 3716.36 850.555 3716.71 850.987 3717.07 849.658 3717.43 851.296 3717.79 850.005 3718.15 850.333 3718.51 848.981 3718.87 847.837 3719.23 849.939 3719.59 846.133 3719.95 847.124 3720.31 848.021 3720.67 847.885 3721.03 845.306 3721.39 845.609 3721.75 843.53 3722.11 845.999 3722.46 846.147 3722.82 846.979 3723.18 851.723 3723.54 850.849 3723.9 852.446 3724.26 851.484 3724.62 851.085 3724.98 849.896 3725.34 850.123 3725.7 848.463 3726.06 846.323 3726.42 847.731 3726.78 843.508 3727.14 848.18 3727.5 845.891 3727.86 848.721 3728.22 848.269 3728.57 851.473 3728.93 850.124 3729.29 850.396 3729.65 847.595 3730.01 848.479 3730.37 848.34 3730.73 849.579 3731.09 850.681 3731.45 850.779 3731.81 848.449 3732.17 847.298 3732.53 848.471 3732.89 848.552 3733.25 849.657 3733.61 849.933 3733.97 849.655 3734.32 848.999 3734.68 850.862 3735.04 849.256 3735.4 850.755 3735.76 849.514 3736.12 848.876 3736.48 846.685 3736.84 843.965 3737.2 841.042 3737.56 843.293 3737.92 836.648 3738.28 842.646 3738.64 843.389 3739 842.943 3739.36 837.496 3739.72 837.956 3740.07 837.616 3740.43 837.986 3740.79 841.006 3741.15 840.448 3741.51 843.604 3741.87 844.344 3742.23 849.157 3742.59 850.657 3742.95 851.385 3743.31 847.944 3743.67 849.684 3744.03 851.447 3744.39 851.718 3744.75 849.327 3745.11 850.717 3745.47 847.138 3745.82 850.524 3746.18 851.517 3746.54 851.466 3746.9 846.359 3747.26 845.66 3747.62 843.668 3747.98 848.31 3748.34 847.832 3748.7 848.933 3749.06 846.104 3749.42 845.358 3749.78 846.857 3750.14 847.151 3750.5 846.338 3750.86 848.152 3751.22 849.395 3751.57 847.263 3751.93 849.362 3752.29 848.355 3752.65 847.369 3753.01 848.598 3753.37 849.503 3753.73 848.357 3754.09 849.483 3754.45 847.255 3754.81 845.538 3755.17 846.638 3755.53 845.118 3755.89 849.331 3756.25 845.661 3756.61 848.775 3756.97 850.207 3757.32 847.189 3757.68 852.893 3758.04 852.167 3758.4 848.31 3758.76 850.255 3759.12 849.838 3759.48 848.221 3759.84 848.572 3760.2 847.297 3760.56 847.747 3760.92 848.112 3761.28 848.564 3761.64 849.09 3762 848.636 3762.36 847.679 3762.72 849.413 3763.08 853.104 3763.43 847.669 3763.79 847.15 3764.15 847.627 3764.51 847.227 3764.87 847.596 3765.23 847.306 3765.59 851.662 3765.95 850.653 3766.31 847.47 3766.67 845.956 3767.03 841.336 3767.39 836.951 3767.75 841.641 3768.11 842.705 3768.47 839.018 3768.83 828.714 3769.18 829.289 3769.54 839.919 3769.9 842.246 3770.26 835.84 3770.62 834.373 3770.98 837.52 3771.34 844.278 3771.7 840.045 3772.06 846.672 3772.42 846.707 3772.78 845.607 3773.14 851.145 3773.5 850.364 3773.86 849.785 3774.22 849.222 3774.58 848.997 3774.93 852.138 3775.29 849.898 3775.65 848.068 3776.01 848.436 3776.37 847.049 3776.73 847.38 3777.09 846.864 3777.45 848.496 3777.81 847.514 3778.17 845.909 3778.53 844.326 3778.89 849.186 3779.25 849.318 3779.61 850.734 3779.97 848.487 3780.33 848.341 3780.68 849.852 3781.04 847.984 3781.4 851.215 3781.76 851.029 3782.12 846.98 3782.48 845.098 3782.84 841.543 3783.2 841.318 3783.56 845.876 3783.92 845.156 3784.28 844.591 3784.64 845.59 3785 850.828 3785.36 846.39 3785.72 851.443 3786.08 850.515 3786.43 847.861 3786.79 848.668 3787.15 848.549 3787.51 851.48 3787.87 848.306 3788.23 849.854 3788.59 846.844 3788.95 844.516 3789.31 846.421 3789.67 846.044 3790.03 850.499 3790.39 848.424 3790.75 849.301 3791.11 848.5 3791.47 848.416 3791.83 848.27 3792.18 850.968 3792.54 851.308 3792.9 848.421 3793.26 849.653 3793.62 847.908 3793.98 849.687 3794.34 849.441 3794.7 851.094 3795.06 849.746 3795.42 847.518 3795.78 848.559 3796.14 847.573 3796.5 847.183 3796.86 843.636 3797.22 841.731 3797.58 838.471 3797.93 831.741 3798.29 835.259 3798.65 837.915 3799.01 823.766 3799.37 833.917 3799.73 838.824 3800.09 833.911 3800.45 846.592 3800.81 839.812 3801.17 839.174 3801.53 841.618 3801.89 841.21 3802.25 843.671 3802.61 841.391 3802.97 837.774 3803.33 846.524 3803.68 847.888 3804.04 849.789 3804.4 843.471 3804.76 845.077 3805.12 849.164 3805.48 849.125 3805.84 850.022 3806.2 848.704 3806.56 848.564 3806.92 848.362 3807.28 849.633 3807.64 848.333 3808 848.289 3808.36 850.39 3808.72 849.123 3809.08 846.351 3809.44 848.728 3809.79 848.489 3810.15 850.177 3810.51 847.947 3810.87 846.498 3811.23 843.048 3811.59 845.866 3811.95 846.226 3812.31 844.241 3812.67 843.486 3813.03 847.495 3813.39 850.56 3813.75 848.459 3814.11 847.142 3814.47 848.6 3814.83 848.027 3815.19 850.333 3815.54 848.559 3815.9 850.276 3816.26 850.378 3816.62 848.246 3816.98 846.497 3817.34 847.928 3817.7 847.095 3818.06 849.868 3818.42 846.836 3818.78 850.372 3819.14 849.222 3819.5 848.62 3819.86 850.42 3820.22 849.941 3820.58 850.263 3820.94 850.205 3821.29 849.716 3821.65 849.347 3822.01 849.325 3822.37 848.416 3822.73 848.065 3823.09 846.696 3823.45 851.519 3823.81 848.977 3824.17 848.097 3824.53 848.212 3824.89 847.763 3825.25 848.191 3825.61 850.482 3825.97 848.611 3826.33 849.446 3826.69 844.669 3827.04 842.785 3827.4 836.432 3827.76 831.988 3828.12 838.273 3828.48 836.211 3828.84 835.578 3829.2 836.994 3829.56 841.095 3829.92 839.041 3830.28 837.066 3830.64 841.02 3831 833.868 3831.36 831.758 3831.72 840.229 3832.08 846.255 3832.44 838.27 3832.79 838.293 3833.15 845.486 3833.51 849.353 3833.87 847.297 3834.23 848.401 3834.59 848.834 3834.95 847.574 3835.31 848.86 3835.67 847.121 3836.03 849.849 3836.39 847.985 3836.75 846.938 3837.11 848.914 3837.47 849.022 3837.83 850.003 3838.19 849.388 3838.54 843.989 3838.9 842.705 3839.26 842.662 3839.62 845.808 3839.98 845.168 3840.34 846.55 3840.7 849.167 3841.06 845.765 3841.42 848.285 3841.78 848.3 3842.14 849.135 3842.5 851.02 3842.86 848.48 3843.22 849.833 3843.58 848.684 3843.94 847.974 3844.29 849.493 3844.65 847.794 3845.01 847.017 3845.37 847.833 3845.73 849.543 3846.09 846.859 3846.45 847.232 3846.81 845.923 3847.17 849.19 3847.53 850.028 3847.89 850.447 3848.25 849.192 3848.61 849.459 3848.97 847.909 3849.33 848.36 3849.69 849.039 3850.05 851.224 3850.4 850.781 3850.76 849.451 3851.12 843.759 3851.48 845.671 3851.84 848.246 3852.2 845.146 3852.56 848.32 3852.92 848.12 3853.28 847.311 3853.64 847.229 3854 848.773 3854.36 849.904 3854.72 847.585 3855.08 848.43 3855.44 849.074 3855.8 850.408 3856.15 850.174 3856.51 844.879 3856.87 840.857 3857.23 831.88 3857.59 833.689 3857.95 829.857 3858.31 832.993 3858.67 837.369 3859.03 837.001 3859.39 827.144 3859.75 827.919 3860.11 829.391 3860.47 832.34 3860.83 828.535 3861.19 838.86 3861.55 843.483 3861.9 842.592 3862.26 851.062 3862.62 847.155 3862.98 848.384 3863.34 848.415 3863.7 848.237 3864.06 848.035 3864.42 848.387 3864.78 850.883 3865.14 850.697 3865.5 851.491 3865.86 851.544 3866.22 849.507 3866.58 849.103 3866.94 842.906 3867.3 842.684 3867.65 843.545 3868.01 843.568 3868.37 841.596 3868.73 846.676 3869.09 844.565 3869.45 850.073 3869.81 850.985 3870.17 848.509 3870.53 847.59 3870.89 848.733 3871.25 847.95 3871.61 846.935 3871.97 849.354 3872.33 851.882 3872.69 850.421 3873.05 845.464 3873.4 848.092 3873.76 844.724 3874.12 846.927 3874.48 848.78 3874.84 843.44 3875.2 847.275 3875.56 849.136 3875.92 847.997 3876.28 849.128 3876.64 849.114 3877 847.318 3877.36 847.713 3877.72 847.782 3878.08 848.643 3878.44 846.884 3878.8 848.44 3879.15 848.026 3879.51 846.081 3879.87 846.938 3880.23 843.743 3880.59 845.556 3880.95 847.931 3881.31 847.895 3881.67 846.149 3882.03 850.891 3882.39 847.061 3882.75 847.002 3883.11 850.39 3883.47 848.093 3883.83 844.631 3884.19 849.291 3884.55 847.14 3884.9 847.341 3885.26 847.989 3885.62 847.778 3885.98 845.821 3886.34 848.434 3886.7 846.92 3887.06 842.143 3887.42 839.136 3887.78 840.775 3888.14 838.566 3888.5 826.788 3888.86 834.289 3889.22 840.951 3889.58 833.218 3889.94 840.512 3890.3 835.929 3890.65 847.162 3891.01 848.065 3891.37 844.298 3891.73 845.626 3892.09 851.628 3892.45 845.416 3892.81 847.984 3893.17 848.173 3893.53 847.974 3893.89 845.117 3894.25 848.754 3894.61 846.865 3894.97 844.557 3895.33 842.398 3895.69 840.663 3896.05 848.097 3896.41 843.298 3896.76 844.891 3897.12 846.794 3897.48 848.976 3897.84 848.908 3898.2 848.636 3898.56 847.545 3898.92 850.853 3899.28 850.464 3899.64 848.023 3900 846.136 3900.36 848.519 3900.72 848.776 3901.08 850.005 3901.44 849.146 3901.8 842.857 3902.16 843.271 3902.51 842.867 3902.87 845.328 3903.23 849.786 3903.59 845.305 3903.95 848.39 3904.31 851.268 3904.67 851.645 3905.03 846.71 3905.39 848.602 3905.75 845.695 3906.11 851.294 3906.47 850.109 3906.83 847.761 3907.19 851.618 3907.55 846.399 3907.91 843.086 3908.26 844.991 3908.62 842.743 3908.98 847.471 3909.34 850.552 3909.7 847.417 3910.06 848.305 3910.42 849.638 3910.78 846.078 3911.14 848.173 3911.5 847.467 3911.86 848.628 3912.22 847.045 3912.58 851.848 3912.94 851.811 3913.3 847.017 3913.66 848.887 3914.01 843.291 3914.37 847.789 3914.73 845.794 3915.09 849.281 3915.45 850.698 3915.81 847.69 3916.17 848.746 3916.53 848.882 3916.89 844.752 3917.25 836.656 3917.61 830.852 3917.97 823.141 3918.33 832.052 3918.69 833.412 3919.05 844.337 3919.41 850.235 3919.76 847.861 3920.12 848.098 3920.48 848.587 3920.84 845.163 3921.2 848.81 3921.56 845.707 3921.92 845.797 3922.28 846.698 3922.64 847.686 3923 845.154 3923.36 841.647 3923.72 845.617 3924.08 847.746 3924.44 847.689 3924.8 848.466 3925.16 842.74 3925.51 845.366 3925.87 846.161 3926.23 846.517 3926.59 847.358 3926.95 846.949 3927.31 846.557 3927.67 844.26 3928.03 847.245 3928.39 847.608 3928.75 847.401 3929.11 849.477 3929.47 848.479 3929.83 845.807 3930.19 845.925 3930.55 845.349 3930.91 847.418 3931.27 844.117 3931.62 846.734 3931.98 849.412 3932.34 847.349 3932.7 847.604 3933.06 847 3933.42 846.936 3933.78 847.448 3934.14 850.431 3934.5 848.917 3934.86 844.325 3935.22 846.904 3935.58 848.461 3935.94 845.215 3936.3 844.498 3936.66 843.814 3937.02 844.11 3937.37 846.407 3937.73 848.854 3938.09 847.425 3938.45 843.642 3938.81 845.526 3939.17 845.954 3939.53 843.762 3939.89 847.79 3940.25 847.62 3940.61 846.871 3940.97 847.648 3941.33 846.217 3941.69 850.109 3942.05 851.388 3942.41 851.374 3942.77 849.432 3943.12 843.107 3943.48 843.056 3943.84 846.622 3944.2 848.125 3944.56 847.638 3944.92 848.523 3945.28 847.298 3945.64 847.529 3946 847.178 3946.36 845.215 3946.72 848.275 3947.08 838.681 3947.44 830.822 3947.8 846.828 3948.16 843.904 3948.52 849.834 3948.87 848.073 3949.23 845.713 3949.59 848.034 3949.95 845.235 3950.31 847.543 3950.67 849.916 3951.03 844.143 3951.39 845.061 3951.75 842.068 3952.11 846.075 3952.47 846.507 3952.83 843.97 3953.19 842.046 3953.55 845.708 3953.91 843.927 3954.27 844.537 3954.62 845.657 3954.98 847.024 3955.34 845.056 3955.7 844.239 3956.06 845.401 3956.42 847.437 3956.78 847.308 3957.14 846.012 3957.5 846.734 3957.86 845.289 3958.22 848.001 3958.58 850.18 3958.94 845.824 3959.3 848.262 3959.66 844.595 3960.02 843.369 3960.37 847.563 3960.73 848.819 3961.09 845.571 3961.45 849.995 3961.81 849.628 3962.17 850.179 3962.53 852.001 3962.89 850.194 3963.25 848.799 3963.61 849.335 3963.97 849.445 3964.33 843.931 3964.69 844.999 3965.05 842.298 3965.41 845.286 3965.77 845.141 3966.12 850.522 3966.48 847.601 3966.84 846.555 3967.2 844.909 3967.56 843.193 3967.92 847.145 3968.28 846.167 3968.64 847.149 3969 845.746 3969.36 847.595 3969.72 843.42 3970.08 845.042 3970.44 844.776 3970.8 844.11 3971.16 842.437 3971.52 845.662 3971.87 840.073 3972.23 843.392 3972.59 845.283 3972.95 847.708 3973.31 845.528 3973.67 849.353 3974.03 843.469 3974.39 847.725 3974.75 848.503 3975.11 849.06 3975.47 848.04 3975.83 849.28 3976.19 844.809 3976.55 845.281 3976.91 846.197 3977.27 845.944 3977.62 845.804 3977.98 847.92 3978.34 845.798 3978.7 850.045 3979.06 845.807 3979.42 846.261" stroke="#4472C4" stroke-width="6.875" stroke-linecap="round" stroke-linejoin="round" stroke-miterlimit="10" fill="none"/></g><g clip-path="url(#clip6)"><text fill="#595959" font-family="Calibri,Calibri_MSFontService,sans-serif" font-weight="400" font-size="41" transform="matrix(1 0 0 1 2626.85 1462)">0</text></g><g clip-path="url(#clip7)"><text fill="#595959" font-family="Calibri,Calibri_MSFontService,sans-serif" font-weight="400" font-size="41" transform="matrix(1 0 0 1 2595.54 1343)">0.2</text></g><g clip-path="url(#clip8)"><text fill="#595959" font-family="Calibri,Calibri_MSFontService,sans-serif" font-weight="400" font-size="41" transform="matrix(1 0 0 1 2595.54 1224)">0.4</text></g><g clip-path="url(#clip9)"><text fill="#595959" font-family="Calibri,Calibri_MSFontService,sans-serif" font-weight="400" font-size="41" transform="matrix(1 0 0 1 2595.54 1105)">0.6</text></g><g clip-path="url(#clip10)"><text fill="#595959" font-family="Calibri,Calibri_MSFontService,sans-serif" font-weight="400" font-size="41" transform="matrix(1 0 0 1 2595.54 986)">0.8</text></g><g clip-path="url(#clip11)"><text fill="#595959" font-family="Calibri,Calibri_MSFontService,sans-serif" font-weight="400" font-size="41" transform="matrix(1 0 0 1 2626.85 867)">1</text></g><g clip-path="url(#clip12)"><text fill="#595959" font-family="Calibri,Calibri_MSFontService,sans-serif" font-weight="400" font-size="41" transform="matrix(1 0 0 1 2595.54 748)">1.2</text></g><g clip-path="url(#clip13)"><text fill="#595959" font-family="Calibri,Calibri_MSFontService,sans-serif" font-weight="400" font-size="41" transform="matrix(1 0 0 1 2675.56 1515)">0</text></g><g clip-path="url(#clip14)"><text fill="#595959" font-family="Calibri,Calibri_MSFontService,sans-serif" font-weight="400" font-size="41" transform="matrix(1 0 0 1 2834.35 1515)">500</text></g><g clip-path="url(#clip15)"><text fill="#595959" font-family="Calibri,Calibri_MSFontService,sans-serif" font-weight="400" font-size="41" transform="matrix(1 0 0 1 3003.59 1515)">1000</text></g><g clip-path="url(#clip16)"><text fill="#595959" font-family="Calibri,Calibri_MSFontService,sans-serif" font-weight="400" font-size="41" transform="matrix(1 0 0 1 3183.28 1515)">1500</text></g><g clip-path="url(#clip17)"><text fill="#595959" font-family="Calibri,Calibri_MSFontService,sans-serif" font-weight="400" font-size="41" transform="matrix(1 0 0 1 3362.97 1515)">2000</text></g><g clip-path="url(#clip18)"><text fill="#595959" font-family="Calibri,Calibri_MSFontService,sans-serif" font-weight="400" font-size="41" transform="matrix(1 0 0 1 3542.66 1515)">2500</text></g><g clip-path="url(#clip19)"><text fill="#595959" font-family="Calibri,Calibri_MSFontService,sans-serif" font-weight="400" font-size="41" transform="matrix(1 0 0 1 3722.35 1515)">3000</text></g><g clip-path="url(#clip20)"><text fill="#595959" font-family="Calibri,Calibri_MSFontService,sans-serif" font-weight="400" font-size="41" transform="matrix(1 0 0 1 3902.04 1515)">3500</text></g><g clip-path="url(#clip21)"><text fill="#595959" font-family="Calibri,Calibri_MSFontService,sans-serif" font-weight="400" font-size="41" transform="matrix(1 0 0 1 4081.73 1515)">4000</text></g><g clip-path="url(#clip22)"><text fill="#595959" font-family="Calibri,Calibri_MSFontService,sans-serif" font-weight="400" font-size="64" transform="matrix(1 0 0 1 3076.68 662)">% CHANGE BRIGHTNESS</text></g><rect x="2566.5" y="567.5" width="1650" height="989" stroke="#D9D9D9" stroke-width="3.4375" stroke-linejoin="round" stroke-miterlimit="10" fill="none"/></g></svg>